<svg version="1.1" id="Layer_1" xmlns="http://www.w3.org/2000/svg" xmlns:xlink="http://www.w3.org/1999/xlink" x="0px" y="0px"
	 width="100%" viewBox="0 0 300 289" enable-background="new 0 0 300 289" xml:space="preserve">
<path fill="black" opacity="0.4" stroke="none" 
	d="
M128.241562,289.757690 
	C127.250000,290.000000 126.500000,290.000000 125.375000,290.000000 
	C114.014503,287.348938 107.616379,279.815887 103.520096,269.827026 
	C102.593468,267.567474 102.174194,265.255768 102.632797,262.825867 
	C101.763611,266.970245 101.357384,271.096375 101.949730,275.357788 
	C102.539574,279.601166 100.438614,281.267578 96.268631,279.828156 
	C86.820282,276.566772 79.088318,271.259094 75.108772,261.529846 
	C73.600624,257.842712 72.051941,254.160904 70.507469,250.486618 
	C67.399841,243.093582 62.218304,239.573929 54.114265,240.482803 
	C46.567341,241.329208 40.065887,238.859604 34.314342,234.024384 
	C29.695852,230.141708 29.704565,228.161850 34.619263,224.573944 
	C36.101879,223.491577 37.531036,222.350693 38.732632,220.958740 
	C42.501713,216.592560 42.260498,211.618164 37.999092,207.693481 
	C35.654247,205.533936 32.856606,204.007095 29.956434,202.743149 
	C19.652515,198.252548 13.771767,189.864716 9.564565,179.931702 
	C8.352066,177.069046 8.847025,174.810562 11.357793,172.928406 
	C14.050282,170.909988 16.308313,168.485245 17.772873,165.408127 
	C18.960009,162.913910 19.450256,160.347137 18.310793,157.698837 
	C16.474281,153.430466 12.293441,152.709976 9.155703,156.106445 
	C7.664528,157.720581 6.976699,159.833115 5.779680,161.621353 
	C4.723269,163.199493 3.461180,164.742172 1.258534,162.257538 
	C1.000000,156.311966 1.000000,150.623917 1.000000,144.467941 
	C1.992731,131.505890 6.634073,120.315491 13.155428,109.778282 
	C15.001311,106.795708 17.137259,104.043610 19.398993,101.385658 
	C21.821281,98.539024 22.226719,95.489517 20.657536,92.121811 
	C11.682117,72.859215 12.526859,52.760475 15.551582,32.465153 
	C15.888122,30.207045 17.060631,28.940285 19.774860,28.123985 
	C22.800573,24.078276 22.704260,19.506376 24.538546,15.594984 
	C27.250988,9.811029 29.128590,3.352445 36.713264,1.212724 
	C39.041668,1.000000 41.083332,1.000000 43.562500,1.000000 
	C49.432373,2.334841 55.091198,2.146191 60.532230,3.547331 
	C63.415459,4.289801 65.883957,2.421451 68.727417,1.211371 
	C69.444443,1.000000 69.888893,1.000000 70.666672,1.000000 
	C79.066040,5.008914 87.484802,8.157275 95.954285,11.172985 
	C98.911583,12.225983 102.106155,12.526056 104.479004,10.252900 
	C116.755417,-1.507746 131.216019,1.434359 145.538254,4.105480 
	C149.236694,4.795247 152.604126,5.042420 156.295364,4.115621 
	C165.299988,1.854734 174.468353,1.195245 183.712143,2.555865 
	C187.559479,3.122165 190.963089,4.686059 193.603653,7.558539 
	C197.783279,12.105242 202.384506,12.625943 208.037216,10.259884 
	C215.143021,7.285599 222.481216,4.862712 229.722748,1.261630 
	C230.750000,1.000000 231.500000,1.000000 232.625000,1.000000 
	C236.733734,3.542362 240.517426,4.251619 245.075562,2.820298 
	C248.652664,1.697039 252.640060,1.894245 256.718506,1.215178 
	C259.370575,1.000000 261.741119,1.000000 264.555847,1.000000 
	C274.852142,4.602704 276.585266,13.821941 279.457031,22.158554 
	C280.482697,25.136105 280.674408,28.339823 284.547974,29.313482 
	C286.224060,29.734793 286.177795,31.552845 286.417175,33.017658 
	C288.819397,47.717197 289.567230,62.397362 286.508240,77.127998 
	C285.377960,82.570694 283.006836,87.514114 280.975372,92.591583 
	C279.638580,95.932831 280.119385,98.567757 282.390289,101.315071 
	C292.515442,113.564362 299.242310,127.323357 300.780518,143.697754 
	C301.000000,149.688034 301.000000,155.376083 301.000000,161.532059 
	C299.359741,164.171768 297.794373,163.986328 296.285309,161.854156 
	C295.320679,160.491241 294.621552,158.969147 293.715973,157.572250 
	C292.186829,155.213577 290.337616,153.163025 287.208466,154.254745 
	C283.931915,155.397888 282.731567,158.150879 282.980927,161.417435 
	C283.291656,165.488052 285.741058,168.478973 288.555878,171.163437 
	C294.155304,176.503586 294.137634,176.465332 290.758270,183.316833 
	C286.351959,192.250427 280.350189,199.554581 270.775696,203.311493 
	C270.158112,203.553833 269.596893,203.929565 269.018829,204.260818 
	C258.005920,210.571930 257.670227,217.855316 268.059601,225.091522 
	C272.072113,227.886230 272.309662,230.198730 268.498260,233.272324 
	C263.111328,237.616455 257.366516,240.794434 249.933685,240.602036 
	C236.970779,240.266479 233.760986,242.524780 229.450592,254.955200 
	C225.518173,266.295593 218.779572,274.608429 207.452957,279.261536 
	C202.679031,281.222656 198.498306,279.830902 200.037018,274.130768 
	C201.003250,270.551270 200.296204,266.815674 198.949677,262.882172 
	C200.220596,272.996307 189.231232,286.480316 177.292007,289.783752 
	C175.933334,290.000000 174.866653,290.000000 173.399994,290.000000 
	C170.603867,288.525696 171.475220,286.821747 172.505676,284.937836 
	C174.929001,280.507477 176.938751,275.942261 175.780334,270.674347 
	C175.212860,268.093781 174.627930,265.536011 171.662277,269.064758 
	C171.009293,269.841705 170.114487,270.317871 169.298859,270.889404 
	C153.365799,282.053955 143.362595,281.324799 128.913605,267.955719 
	C128.447235,267.524200 128.082733,266.900604 127.202690,266.972473 
	C124.911720,272.785034 125.871780,278.313599 128.694443,283.711365 
	C129.707016,285.647675 130.999557,287.672516 128.241562,289.757690 
z"/>
<path fill="white" opacity="1.000000" stroke="none" 
	d="
M177.468658,290.000000 
	C180.443069,286.730530 184.895889,284.802856 188.058609,281.060669 
	C193.901459,274.147247 198.468994,266.894775 197.415009,257.034149 
	C200.505814,259.650940 202.216461,262.960022 202.886002,266.628601 
	C203.356140,269.204559 203.430450,272.051666 202.837280,274.579559 
	C201.750092,279.212799 203.928345,277.825745 206.315445,276.911285 
	C217.000793,272.818146 223.573776,265.038300 226.866867,254.252075 
	C227.730865,251.422150 228.819031,248.697159 230.344589,246.126419 
	C234.079651,239.832413 238.861877,236.372192 246.785492,237.877594 
	C253.793076,239.208969 260.024078,236.727203 265.679474,232.244019 
	C268.548187,229.969910 270.251099,228.860641 265.711914,226.809402 
	C263.808350,225.949188 261.956085,224.539978 260.620544,222.931870 
	C254.045242,215.014557 257.976654,207.868500 264.063507,204.090790 
	C266.684143,202.464355 269.386688,200.910934 272.307220,199.650223 
	C281.787567,195.557816 286.233795,186.930954 290.377319,178.166000 
	C291.342010,176.125305 289.790314,175.756287 288.630951,174.794296 
	C284.523590,171.386200 280.794617,167.705353 279.858337,162.016541 
	C279.102600,157.424759 282.070343,151.766037 286.648438,150.307053 
	C291.522064,148.753845 293.920959,151.833725 295.934021,155.653259 
	C297.117218,157.898224 297.338470,160.890793 300.642639,161.969421 
	C301.000000,203.427841 300.956482,244.855804 301.085632,286.283234 
	C301.095581,289.469940 300.282837,290.084137 297.229309,290.075409 
	C257.465576,289.961731 217.701385,290.000000 177.468658,290.000000 
z"/>
<path fill="white" opacity="1.000000" stroke="none" 
	d="
M1.000000,162.468658 
	C2.503238,161.983276 3.441668,161.300903 3.953846,159.831802 
	C4.438264,158.442307 5.004359,157.040939 5.783812,155.801575 
	C9.369330,150.100464 12.167437,148.715729 15.976490,150.599823 
	C21.078550,153.123520 23.215778,158.694168 21.448778,164.173065 
	C20.005932,168.646835 17.173929,172.111923 13.471560,174.624313 
	C11.247999,176.133224 11.087125,177.266861 12.093684,179.400101 
	C16.474874,188.685394 21.777348,196.839462 32.115128,200.799469 
	C36.413216,202.445892 40.881622,204.771484 43.177425,209.503708 
	C46.360794,216.065430 44.480556,221.715485 36.428139,226.658585 
	C32.827976,228.868607 32.933254,229.446793 36.085289,232.206482 
	C42.755829,238.046753 50.538647,238.949646 58.468033,237.795731 
	C64.464996,236.923019 67.133179,240.153763 69.981255,243.989319 
	C73.559135,248.807709 75.345177,254.524826 77.372620,260.022675 
	C80.859604,269.478394 88.354523,274.001373 96.978386,277.427002 
	C98.390411,277.987915 100.239822,278.785370 99.351852,275.789551 
	C97.396111,269.191315 99.343788,263.339172 103.080574,257.543121 
	C103.681633,257.209839 104.028923,257.120361 104.231331,257.548889 
	C103.975708,271.047363 111.072182,279.828369 120.953796,286.973633 
	C122.151573,287.839722 123.427086,288.598328 124.833282,289.703369 
	C84.903175,290.000000 44.806198,289.954163 4.709812,290.087036 
	C1.505758,290.097626 0.917915,289.258789 0.926052,286.222382 
	C1.036182,245.127579 1.000000,204.032394 1.000000,162.468658 
z"/>
<path fill="white" opacity="1.000000" stroke="none" 
	d="
M301.000000,143.531342 
	C297.385864,135.204010 294.357147,126.184837 290.005493,117.668076 
	C286.975098,111.737198 283.770447,106.044044 278.910828,101.451378 
	C276.233032,98.920670 275.680847,96.473900 277.498199,93.016762 
	C285.328918,78.120529 287.461884,62.243305 285.125244,45.658360 
	C284.464600,40.969227 284.067047,36.243027 283.544495,31.494326 
	C281.071716,30.843689 280.687347,34.221478 278.066742,33.914845 
	C278.233093,21.478266 273.908051,10.663602 265.127502,1.312672 
	C275.640533,1.000000 286.284393,1.148350 296.919617,0.910612 
	C300.157349,0.838237 301.121155,1.304652 301.108337,4.902391 
	C300.944214,50.955368 301.000000,97.009125 301.000000,143.531342 
z"/>
<path fill="white" opacity="1.000000" stroke="none" 
	d="
M22.864388,33.830261 
	C21.097002,33.049633 20.475538,30.868174 18.785765,31.577179 
	C17.367264,32.172363 18.149456,33.956814 18.010054,35.213619 
	C17.173443,42.756222 15.687927,50.222263 15.962247,57.888142 
	C16.414572,70.528351 18.523062,82.770699 24.624302,93.981247 
	C26.046967,96.595276 25.787394,98.276268 23.943432,100.162773 
	C14.267431,110.062019 9.227102,122.621262 4.045367,135.072830 
	C2.920765,137.775223 2.413504,140.734543 1.310951,143.787750 
	C1.000000,97.613914 1.024935,51.227787 0.939903,4.841859 
	C0.934634,1.967682 1.259252,0.803087 4.642732,0.895529 
	C15.109188,1.181489 25.588415,1.000000 36.531342,1.000000 
	C28.275822,9.549364 24.954142,20.520937 23.063856,32.527634 
	C23.182673,33.269341 23.282415,33.609131 22.864388,33.830261 
z"/>
<path fill="white" opacity="1.000000" stroke="none" 
	d="
M229.531342,1.000000 
	C229.531219,4.272366 226.975861,5.646090 224.396683,6.729922 
	C217.923386,9.450178 211.377945,12.001243 204.834915,14.552112 
	C201.097534,16.009171 197.726440,16.300842 194.822815,12.477692 
	C193.064194,10.162158 190.847214,8.133393 188.198151,6.546004 
	C180.340866,1.837662 172.220078,1.929493 163.844742,4.580535 
	C160.396027,5.672158 156.926163,6.725128 153.557281,8.031300 
	C151.207718,8.942261 149.287003,8.605098 146.998734,7.589487 
	C139.213852,4.134278 131.040176,1.798421 122.465317,3.121203 
	C116.100021,4.103130 110.904533,7.760653 106.758430,12.647777 
	C104.623138,15.164696 102.738770,16.315954 99.144463,15.128988 
	C90.837669,12.385798 82.804077,8.992505 74.695572,5.770061 
	C72.848366,5.035954 72.739677,2.744306 71.131912,1.319010 
	C123.687561,1.000000 176.375122,1.000000 229.531342,1.000000 
z"/>
<path fill="white" opacity="1.000000" stroke="none" 
	d="
M128.468658,290.000000 
	C128.105255,286.018524 124.939903,283.362671 123.878639,279.744293 
	C121.852325,272.835510 124.269913,266.934937 126.380730,259.945801 
	C132.260193,269.930237 141.302704,276.064697 151.038803,276.132355 
	C160.698807,276.199524 169.313553,269.526611 175.080566,260.574249 
	C181.179977,270.894257 179.358261,280.257721 173.028915,289.641357 
	C158.312439,290.000000 143.624878,290.000000 128.468658,290.000000 
z"/>
<path fill="white" opacity="1.000000" stroke="none" 
	d="
M68.531349,1.000001 
	C68.397652,1.772400 67.482826,2.458627 67.242310,3.330808 
	C65.291016,10.406713 61.733894,8.093692 57.572906,5.361079 
	C53.679134,2.803957 48.822319,2.905159 44.223778,1.313546 
	C52.020901,1.000000 60.041798,1.000000 68.531349,1.000001 
z"/>
<path fill="white" opacity="1.000000" stroke="none" 
	d="
M256.531372,1.000000 
	C251.190109,3.868783 244.262009,3.966893 239.032333,8.305694 
	C237.494598,9.581446 237.073212,7.874141 236.524429,7.045041 
	C235.364700,5.292951 234.344391,3.448576 233.133453,1.321027 
	C240.687576,1.000000 248.375168,1.000000 256.531372,1.000000 
z"/>
<path fill="white" opacity="1.000000" stroke="none" 
	d="
M237.764435,224.437592 
	C240.314133,217.877350 243.443619,212.002075 242.736649,204.688644 
	C238.923416,206.363083 237.350204,210.421829 233.179306,212.088806 
	C233.539932,207.020111 234.908798,202.658249 235.166946,198.113449 
	C235.650970,189.592392 231.425232,183.999069 225.362366,179.163971 
	C222.139175,176.593521 218.526550,174.453278 215.866852,171.260544 
	C210.784058,165.159180 210.842438,158.623016 215.193466,151.874756 
	C211.072281,152.139832 209.018387,154.325516 206.212051,160.901230 
	C202.659134,156.638092 201.911758,140.803802 204.691910,126.850845 
	C209.935669,129.606232 208.810104,135.357742 211.322266,139.568726 
	C210.424149,134.714386 214.485107,131.374146 214.463303,126.446251 
	C214.451599,123.797729 217.411179,121.045105 213.882965,118.017235 
	C229.165466,119.460052 242.257263,127.789413 246.046570,144.547943 
	C246.182846,145.269073 246.282547,145.608841 245.864502,145.830093 
	C242.579193,143.046066 239.349548,141.084152 235.890213,139.461426 
	C235.079712,139.081238 234.191101,138.860504 233.596313,139.546860 
	C232.867798,140.387558 233.614288,141.147156 234.275040,141.564499 
	C245.236343,148.487717 247.853745,159.904633 250.715454,171.358398 
	C254.989105,188.463287 252.624496,204.343277 242.946503,219.094330 
	C241.776627,220.877426 240.415100,222.534790 238.893875,224.484863 
	C238.302094,224.793869 237.958847,224.868439 237.764435,224.437592 
z"/>
<path fill="white" opacity="1.000000" stroke="none" 
	d="
M61.852383,221.833099 
	C51.681095,209.840271 47.617355,196.483536 49.742405,181.166367 
	C50.720623,174.115463 51.886555,167.191483 53.946602,160.353897 
	C56.249512,152.710175 60.620258,146.754990 66.897766,142.047424 
	C67.787743,141.380035 69.316360,140.947906 68.341980,139.542236 
	C67.711624,138.632874 66.578323,139.304031 65.629684,139.707489 
	C61.941288,141.276184 58.897900,143.814774 55.704472,146.397903 
	C55.710209,137.447540 64.251862,125.852493 73.718224,121.705215 
	C75.531136,120.910965 77.344963,120.106812 79.203064,119.429924 
	C85.218483,117.238548 88.263420,120.068123 87.307709,126.614265 
	C87.029373,128.520737 85.356430,131.424408 89.355293,132.052826 
	C89.698418,132.106750 89.829613,133.785095 89.981537,134.721451 
	C90.284500,136.588684 89.401093,138.638733 91.163170,140.929886 
	C92.461288,137.362595 91.898544,133.775467 93.617706,130.815887 
	C94.458138,129.369080 95.175682,127.267342 96.912262,127.559189 
	C98.758141,127.869415 98.020729,130.098923 97.945770,131.438065 
	C97.410851,140.994766 99.366211,150.630859 97.025635,160.134384 
	C96.774780,161.152939 96.613358,162.068848 95.402138,162.650574 
	C94.401863,157.836380 93.009041,153.255692 87.592468,151.087997 
	C87.081917,155.576706 90.432381,158.821594 89.564819,163.294785 
	C88.213791,170.260712 83.485924,174.424469 78.421417,177.807358 
	C65.758011,186.265930 64.241142,197.428543 68.829742,210.651855 
	C69.027420,211.221512 68.968552,211.880188 69.113892,213.359497 
	C65.718643,210.143570 62.886425,207.460953 59.737713,204.478546 
	C57.546188,210.547043 61.237156,215.134979 62.046036,220.540680 
	C62.180576,221.276459 62.277985,221.623596 61.852383,221.833099 
z"/>
<path fill="white" opacity="1.000000" stroke="none" 
	d="
M190.544678,70.226715 
	C187.928833,72.877693 186.482986,71.333473 185.167831,69.333328 
	C178.477051,59.157646 182.774506,48.126751 194.624329,45.038586 
	C202.235413,43.055073 213.341492,49.712444 216.892319,58.654781 
	C213.239059,58.255642 210.129837,55.904564 205.361008,56.457928 
	C209.746811,59.885784 213.455795,62.765484 216.720139,66.142914 
	C220.789856,70.353645 224.182434,74.856163 225.868225,80.580406 
	C227.122986,84.841103 235.072021,90.023499 240.443161,89.928474 
	C245.536530,89.838371 250.735367,90.961861 255.722672,88.836884 
	C257.355133,88.141350 258.196747,89.459038 259.327484,90.551346 
	C265.942413,96.941559 267.418121,105.479485 268.830994,113.834618 
	C269.675415,118.827972 269.320343,123.984032 273.231018,128.188232 
	C268.043274,127.360756 265.850067,122.431770 260.461823,119.376305 
	C270.971283,140.863785 277.610138,161.309601 262.395752,181.997208 
	C264.286438,175.229889 265.749451,168.268250 265.873962,161.288101 
	C266.191010,143.520050 258.345703,129.003540 246.984024,115.871635 
	C242.265305,110.417732 236.971085,106.591202 229.940735,105.058533 
	C222.223679,103.376137 217.559296,95.056053 218.111023,88.735939 
	C219.194824,76.320915 215.342789,73.344109 201.947739,71.743286 
	C202.240982,70.249809 204.852631,71.679489 204.583313,69.771439 
	C204.341400,68.057510 202.820038,68.116669 201.468658,68.004692 
	C197.739716,67.695717 194.216431,68.364326 190.544678,70.226715 
z"/>
<path fill="white" opacity="1.000000" stroke="none" 
	d="
M84.169899,58.864540 
	C87.605286,52.357689 92.963501,48.368443 98.650566,45.165016 
	C104.149506,42.067558 109.371040,45.328899 113.729568,48.455936 
	C118.305511,51.738972 121.096626,56.536308 119.614616,62.556835 
	C118.993256,65.081055 117.903854,67.619774 116.455154,69.765678 
	C115.464981,71.232391 114.512405,74.046112 111.423225,70.593918 
	C108.540695,67.372650 103.547188,67.646683 99.171890,68.124146 
	C98.288620,68.220535 97.542496,68.764565 97.426178,69.635567 
	C97.140541,71.774391 99.787102,70.244560 100.196846,71.885864 
	C97.529594,72.043846 94.795921,71.766830 92.390015,73.053856 
	C84.968109,77.024162 83.888351,75.927391 83.916100,84.901047 
	C83.951309,96.286385 79.933678,104.442108 67.552933,106.300362 
	C60.306934,107.387924 56.747341,113.735718 52.639267,118.523651 
	C41.453720,131.560333 34.985390,146.751831 36.101555,164.327286 
	C36.440910,169.670944 37.943985,174.940689 38.957611,180.482346 
	C33.586643,175.757584 28.433266,158.368881 30.266001,150.730164 
	C32.746937,140.389771 35.390003,130.076324 40.631042,120.472717 
	C36.093216,122.755280 33.131783,126.842484 28.415998,129.025055 
	C27.730928,129.182892 27.391111,129.282532 27.169659,128.864395 
	C32.025417,124.630821 32.820656,119.539185 33.125435,113.855850 
	C33.600090,105.004684 36.621788,96.889091 42.561516,90.090599 
	C43.711571,88.774261 45.132431,88.524475 47.004955,88.959320 
	C56.081917,91.067230 64.890327,91.150902 72.852257,85.125610 
	C74.528915,83.856766 75.805611,82.686943 76.225151,80.545456 
	C78.057793,71.191002 85.526695,66.069771 91.824432,60.098907 
	C93.048454,58.938412 94.579689,58.101952 96.969490,56.406315 
	C91.984825,56.152695 88.909233,57.614929 85.438263,59.023338 
	C84.731049,59.182976 84.391289,59.282627 84.169899,58.864540 
z"/>
<path fill="white" opacity="1.000000" stroke="none" 
	d="
M156.259460,268.195801 
	C155.588242,269.169067 155.198456,269.902557 154.712814,270.565796 
	C151.283859,275.248901 150.517792,275.200439 147.285645,270.626648 
	C142.752121,264.211334 138.689438,257.635406 138.991119,249.366577 
	C139.051758,247.704514 138.045471,247.061554 136.848099,246.396378 
	C124.550453,239.564651 118.666359,229.085098 118.960808,215.045349 
	C118.986145,213.836975 119.641838,211.924042 118.027565,211.569092 
	C116.421608,211.215973 115.505547,212.855576 114.945999,214.272995 
	C113.495094,217.948380 111.810707,221.544250 111.950058,225.675934 
	C112.001846,227.211349 112.653145,229.053329 110.887077,230.260239 
	C109.364571,225.443314 109.758934,221.090363 112.363327,213.278168 
	C114.186760,207.808578 116.415031,202.457123 117.003235,196.633820 
	C117.764091,189.101196 115.101883,182.257584 112.583611,175.455597 
	C110.816849,170.683472 112.136917,163.719131 116.823158,159.541351 
	C116.959221,167.085052 117.068695,174.122208 118.982704,180.922241 
	C120.365456,185.834808 121.660210,190.772125 122.997307,195.697556 
	C123.197662,196.435623 122.954491,197.589172 124.132179,197.559769 
	C125.268875,197.531387 125.824814,196.632202 125.910683,195.547546 
	C126.131256,192.760986 126.714508,190.117432 128.858368,187.147705 
	C128.979797,192.709229 128.833420,197.525742 130.525818,202.095490 
	C131.143906,203.764404 129.953995,204.920609 129.355179,206.218155 
	C123.894928,218.049469 125.097069,224.230560 134.684464,233.363281 
	C134.925446,233.592819 135.365677,233.831497 135.364883,234.064713 
	C135.341949,240.799667 141.643951,241.239944 145.420166,244.160507 
	C148.222824,246.328110 153.712738,246.171036 156.837891,244.080322 
	C158.482361,242.980148 160.250717,242.066910 161.920822,241.002853 
	C163.960052,239.703613 166.452011,238.753723 166.089294,235.548828 
	C165.966019,234.459808 166.768539,233.726074 167.626038,233.152740 
	C175.125458,228.138550 177.562561,220.318542 174.446732,212.879166 
	C170.837357,204.261368 172.781372,196.293808 173.431717,187.004929 
	C174.466431,190.169922 175.241776,192.460114 175.958450,194.768524 
	C176.309402,195.898880 175.532730,197.815521 177.665924,197.686737 
	C179.333755,197.586060 178.740143,195.950500 179.031815,194.921295 
	C182.254501,183.549286 186.169189,172.311310 184.875320,159.459198 
	C190.255463,164.720444 191.735626,170.578979 188.981567,176.317383 
	C183.106308,188.559143 184.090958,200.684525 189.131851,212.755585 
	C191.888763,219.357361 190.730042,226.127838 190.628265,232.892075 
	C189.435104,228.803802 190.597244,224.443680 189.091949,220.345825 
	C187.901230,217.104401 186.970917,211.868927 184.306961,211.953094 
	C181.706100,212.035294 182.326538,217.589661 182.221237,220.494171 
	C181.828033,231.340744 176.493423,238.902603 167.885422,244.610916 
	C164.929764,246.570892 162.724213,248.243439 162.722900,252.558426 
	C162.721161,258.237640 159.777344,263.278229 156.259460,268.195801 
z"/>
<path fill="white" opacity="1.000000" stroke="none" 
	d="
M31.261724,28.567944 
	C32.807755,22.887064 36.591373,19.065914 39.687946,14.818014 
	C42.354721,11.159710 45.795418,10.841457 49.746201,12.385204 
	C58.350948,15.747458 67.047386,18.920273 74.203049,25.072851 
	C74.830673,25.612497 75.530876,26.073624 76.122597,26.648226 
	C82.639557,32.976707 82.228317,33.267986 74.846802,37.806683 
	C68.667618,41.606091 64.005005,43.802410 58.525097,36.589966 
	C56.381863,33.769123 51.927521,31.844030 46.899246,32.460369 
	C51.172848,36.674179 54.274891,41.123886 56.253212,46.384296 
	C57.327377,49.240528 57.063705,50.949364 54.220993,52.469925 
	C46.775902,56.452286 41.496326,62.901947 35.719357,69.305260 
	C33.965958,66.547874 32.972733,63.590046 32.353806,59.372192 
	C27.825590,68.270439 31.509327,75.872124 33.121101,84.432724 
	C27.223829,78.713554 24.689327,72.172844 23.270247,65.525398 
	C21.804510,58.659389 21.364944,51.525146 23.841166,44.505207 
	C24.722328,42.007164 24.892569,40.688492 27.498814,42.893181 
	C29.690189,44.746918 29.943727,42.927082 29.961758,41.280155 
	C30.007132,37.136177 29.812464,32.976406 31.261724,28.567944 
z"/>
<path fill="white" opacity="1.000000" stroke="none" 
	d="
M270.000427,64.355515 
	C269.808411,62.498257 270.432251,60.945026 268.919250,59.226883 
	C267.717621,62.724300 266.616302,65.929726 265.371796,69.551949 
	C261.053070,65.234123 257.521149,60.737194 253.199448,56.982964 
	C251.660889,55.646416 250.148911,54.456715 248.350586,53.759212 
	C243.579178,51.908573 243.497482,48.578484 245.154251,44.584389 
	C246.979065,40.185169 249.702896,36.337090 252.889709,32.662678 
	C245.805450,32.705605 241.224365,37.198009 236.683044,41.204384 
	C234.649628,42.998257 233.579941,42.674507 232.305649,41.343658 
	C229.812881,38.740234 226.415512,37.355415 223.366730,36.426521 
	C217.847519,34.744946 219.909714,32.161541 221.897858,29.763966 
	C226.058899,24.746067 231.554840,21.339165 237.115021,18.027466 
	C241.418442,15.464294 246.313080,14.561631 250.854553,12.679335 
	C254.163712,11.307785 257.010162,11.555787 260.178528,14.418459 
	C266.731140,20.338867 269.827179,27.575895 270.838654,36.022053 
	C270.934967,36.826279 270.942200,37.725174 270.680969,38.471745 
	C270.021362,40.357002 269.055725,42.717743 270.812714,43.876797 
	C272.507812,44.995014 273.740875,42.214542 275.403290,41.618534 
	C281.126709,51.537613 277.828400,73.850929 268.949707,81.903381 
	C269.531708,75.811714 270.371918,70.322449 270.000427,64.355515 
z"/>
<path fill="white" opacity="1.000000" stroke="none" 
	d="
M127.135483,98.169907 
	C133.876190,100.105820 136.176666,106.533936 141.189804,109.823112 
	C143.448227,111.304886 145.744583,112.222839 148.569901,112.712402 
	C148.673584,109.891235 146.401505,109.501999 144.972855,108.387993 
	C140.799545,105.133804 140.677612,103.169495 144.079346,99.368660 
	C147.654175,95.374466 149.305267,90.644188 148.989304,85.247093 
	C148.916183,83.998108 148.664093,82.605194 147.406601,82.478546 
	C145.604248,82.296997 146.051834,84.034752 146.044052,85.042984 
	C146.026398,87.331131 145.200699,89.160622 143.365356,90.655777 
	C144.308548,87.573463 143.856003,84.454552 144.021240,81.369331 
	C144.176849,78.464096 143.095779,78.028900 140.527359,78.939186 
	C138.435852,79.680466 136.400131,80.919189 133.379456,80.674286 
	C137.168121,76.884621 141.906433,76.154472 146.881927,73.993652 
	C140.220917,71.403687 135.587753,76.110840 129.640366,76.674988 
	C131.771545,73.831757 133.768265,71.850433 136.766418,72.082710 
	C140.343292,72.359825 142.070175,70.506775 143.851166,67.798096 
	C147.169586,62.751148 148.446609,56.928951 150.888168,50.510330 
	C152.911865,57.000580 155.260544,62.448929 157.870056,67.795746 
	C159.172409,70.464218 160.818909,72.104309 163.886520,71.999641 
	C167.320068,71.882500 169.619919,73.849182 172.479736,76.737762 
	C166.245468,75.870239 161.403595,71.473923 154.436935,73.945702 
	C159.826569,75.807632 164.338013,77.171013 168.476944,80.100662 
	C168.793808,80.697861 168.868561,81.041100 168.437805,81.235443 
	C167.434906,81.042366 166.916733,81.072876 166.443420,80.941612 
	C163.807297,80.210556 160.293777,77.319771 158.752106,79.345238 
	C156.860367,81.830597 157.535156,85.979324 158.696732,89.385513 
	C159.059723,90.449982 159.251801,91.572739 159.716690,93.457741 
	C156.203552,90.502724 156.137070,86.493683 154.319687,83.354897 
	C151.884094,88.159363 153.074677,94.339798 157.129898,98.623871 
	C161.861206,103.622185 161.498520,105.591408 155.316406,109.343628 
	C154.157242,110.047180 151.637192,110.477577 152.551071,112.150826 
	C153.630432,114.127052 155.449860,112.115570 156.832764,111.561897 
	C161.214081,109.807724 164.840775,107.192757 167.019485,102.764336 
	C168.479843,99.796021 171.832016,100.011055 174.891479,98.443054 
	C174.076828,104.033829 170.861511,107.202339 167.132980,109.909752 
	C164.008911,112.178238 158.838837,114.175484 159.798584,117.956200 
	C160.490601,120.682312 166.137909,120.028931 169.742706,120.012482 
	C171.152466,120.006050 171.924057,119.864540 172.453186,122.107643 
	C173.136322,125.003571 176.489548,126.599548 178.938324,128.590317 
	C186.919800,135.078949 189.690475,144.560410 193.012482,153.687759 
	C190.141205,152.998428 189.946564,150.485962 188.915024,148.622253 
	C184.006897,139.754532 178.173859,131.719818 167.979355,128.618027 
	C163.009872,127.106018 157.699997,124.471527 152.496216,128.586456 
	C151.881531,129.072540 150.452545,129.033966 149.637970,128.685226 
	C139.842422,124.491570 131.191757,128.130722 123.988762,133.990128 
	C118.215332,138.686615 113.956276,145.320480 111.014191,152.447464 
	C110.761810,153.058838 110.724228,153.728333 109.945053,153.919556 
	C108.581711,149.773346 109.903778,146.821747 116.821800,135.604507 
	C121.276627,128.381226 121.816788,128.072617 133.908249,125.163391 
	C132.074875,123.502899 130.426483,122.009956 128.181259,119.976456 
	C131.297150,119.976456 133.975571,120.059341 136.645981,119.948921 
	C138.605286,119.867897 141.174759,119.587540 141.619232,117.659439 
	C142.125702,115.462395 140.793884,113.390350 138.469925,112.104820 
	C133.341797,109.268120 128.781921,105.794708 126.952988,99.434494 
	C126.817070,98.730988 126.717407,98.391220 127.135483,98.169907 
z"/>
<path fill="white" opacity="1.000000" stroke="none" 
	d="
M101.717369,38.000740 
	C100.090485,38.000278 98.888382,38.189346 97.765869,37.970367 
	C88.093529,36.083469 83.395378,41.911537 79.228600,49.291134 
	C74.829391,57.082390 72.114983,65.507835 68.964111,73.777519 
	C64.544418,85.377289 55.711163,88.441002 45.015587,81.993233 
	C43.705780,81.203621 42.318455,80.394630 42.159241,78.784706 
	C42.021980,77.396790 41.199200,74.877457 44.477703,76.657646 
	C45.849190,77.402344 47.673367,77.284134 49.272354,77.644272 
	C55.330833,79.008812 56.656170,78.055962 59.453083,72.331345 
	C65.703018,59.539223 73.451431,47.662922 84.157196,38.180553 
	C87.981277,34.793472 86.610260,30.360043 88.420113,26.626463 
	C89.963257,23.443111 90.421165,23.459150 92.972031,25.325142 
	C95.434601,27.126543 98.308319,28.568930 101.214905,29.508951 
	C104.852722,30.685467 108.466957,30.786461 110.042694,25.993538 
	C111.063866,22.887434 113.044136,23.306356 114.763527,25.322906 
	C122.261932,34.117268 132.207199,38.729877 142.945007,41.995770 
	C144.304398,42.409225 144.500931,42.723907 144.392853,44.312607 
	C143.617828,55.704819 137.481491,63.460316 128.199203,69.275078 
	C125.870018,70.734161 124.908096,70.235085 124.994614,67.487267 
	C125.041641,65.993607 125.269905,64.378952 124.810204,63.024651 
	C124.051880,60.790573 124.581940,60.054874 126.881584,59.964737 
	C128.212357,59.912575 130.194000,60.796738 130.726669,58.786709 
	C131.240112,56.849251 128.821976,56.817581 128.066345,55.626839 
	C127.564415,54.835861 125.967049,55.148262 126.128189,53.577099 
	C128.693695,51.868687 131.117264,54.157944 133.622192,53.959023 
	C134.690918,53.874149 136.148331,54.466980 136.656204,53.002480 
	C137.226151,51.359043 135.627991,51.419949 134.745331,50.776684 
	C129.870117,47.223732 123.660133,45.453957 120.238190,39.929661 
	C119.675751,39.021690 118.443039,38.691612 117.631424,39.504997 
	C116.051277,41.088612 118.444008,42.507618 117.900497,44.564266 
	C112.394234,43.031719 108.467651,37.445774 101.717369,38.000740 
z"/>
<path fill="white" opacity="1.000000" stroke="none" 
	d="
M226.073303,56.878990 
	C224.612457,52.019207 222.004471,48.114071 219.473907,44.297375 
	C216.802765,40.268665 213.233032,37.918083 207.572815,37.740391 
	C198.848557,37.466503 191.349731,39.633690 184.479599,44.729141 
	C183.417740,43.397099 184.376480,42.490639 184.728180,41.492630 
	C185.017960,40.670280 185.042175,39.755749 184.161469,39.314289 
	C183.386932,38.926052 182.378860,39.009781 181.903717,39.786545 
	C178.411484,45.495655 171.860718,47.071976 166.959061,50.869644 
	C166.203735,51.454857 164.945465,51.509430 165.280273,52.822250 
	C165.686951,54.416843 167.162933,54.039181 168.185059,53.899879 
	C170.565475,53.575478 172.862747,52.280411 175.648148,53.553619 
	C175.045380,54.263889 174.416290,54.804600 174.043762,55.485649 
	C173.254349,56.928909 170.322937,56.771225 170.873077,58.786766 
	C171.427780,60.818996 173.735046,59.846035 175.283524,60.013165 
	C178.176788,60.325439 176.958694,62.512711 176.918381,63.839832 
	C176.850891,66.061142 178.174454,69.313263 176.062424,70.253769 
	C174.237900,71.066238 172.291260,68.188156 170.486664,66.876221 
	C163.124802,61.524212 158.357071,54.627502 157.494705,45.216137 
	C157.291260,42.995827 157.493958,42.505314 159.561371,41.887733 
	C170.329224,38.671146 180.050705,33.612934 187.544189,24.948116 
	C189.286880,22.933010 190.800659,22.662069 191.749207,25.509342 
	C193.559509,30.943237 197.386612,30.868965 201.660141,29.113167 
	C204.671432,27.875963 207.507141,26.217041 210.466019,24.842808 
	C211.225830,24.489920 212.721527,22.590525 212.879456,25.035645 
	C213.737869,38.325928 225.668274,44.375572 231.700180,54.255161 
	C235.294601,60.142441 240.027466,65.474174 241.870743,72.258240 
	C243.595032,78.604378 245.627243,78.223083 253.009109,77.841507 
	C255.148087,77.730934 258.004608,74.795586 259.079193,78.673012 
	C260.018097,82.060883 256.353729,82.300674 254.348099,83.151711 
	C242.992538,87.970154 236.828217,84.708389 232.734299,73.161568 
	C230.832428,67.797363 229.627441,62.012211 226.073303,56.878990 
z"/>
<path fill="white" opacity="1.000000" stroke="none" 
	d="
M182.220703,101.837051 
	C184.403961,98.990982 185.127823,97.198006 182.768555,93.821724 
	C179.475952,89.109741 177.058731,83.681740 174.371902,78.275040 
	C184.777206,81.754776 194.710403,85.400467 200.019348,96.226578 
	C205.895660,108.209717 204.182037,119.721405 199.314621,131.418091 
	C197.309525,136.236435 196.020264,141.352676 194.498627,146.045929 
	C192.047623,138.738159 191.550751,129.848877 184.802170,124.730598 
	C180.297867,121.314423 181.511063,118.748352 183.311752,115.301430 
	C185.560684,110.996506 185.865799,106.657784 183.477722,102.136017 
	C182.778030,102.150291 182.479980,102.222939 182.220703,101.837051 
z"/>
<path fill="white" opacity="1.000000" stroke="none" 
	d="
M106.031776,141.691772 
	C103.371765,131.385986 97.699928,122.327240 97.950462,111.539062 
	C98.323128,95.491920 110.592499,80.881187 126.427345,78.153076 
	C126.835472,78.082764 127.312576,78.412827 128.493713,78.793358 
	C122.943748,83.703102 122.577995,91.481934 117.032623,96.040192 
	C115.847122,97.014656 116.418999,97.657799 117.022415,98.486893 
	C117.969009,99.787506 119.741127,100.488800 119.919594,102.531570 
	C116.153030,101.426628 115.782043,103.656784 116.241943,106.359451 
	C116.985199,110.727364 117.974380,115.044632 120.013428,119.036789 
	C120.630669,120.245277 121.099632,121.254204 119.833687,122.558372 
	C111.994057,130.634720 110.051506,134.368393 107.618446,145.569305 
	C107.033035,144.222916 106.561234,143.137833 106.031776,141.691772 
z"/>
<path fill="white" opacity="1.000000" stroke="none" 
	d="
M204.983124,214.647736 
	C204.598022,208.964676 207.095200,203.877319 208.272415,198.520172 
	C210.002090,190.648987 208.036362,183.881454 204.658890,177.137131 
	C204.206314,176.233383 203.679184,175.456619 204.159882,174.507797 
	C218.314056,181.201599 211.891296,193.083450 211.160034,204.589600 
	C217.010223,200.732956 218.318863,195.315674 219.976074,190.113571 
	C220.323059,189.024399 219.226181,187.194672 221.222046,186.975067 
	C222.682816,186.814346 223.270447,188.220840 224.160797,189.239365 
	C228.047607,193.685806 227.535736,198.859573 226.446411,203.858261 
	C225.432953,208.508804 223.515381,212.940628 220.699890,216.927032 
	C219.403183,218.763000 217.946960,220.697235 220.545792,222.995071 
	C222.352081,224.592148 219.989029,225.901291 219.297089,227.012756 
	C215.639969,232.887390 211.514633,238.459351 209.721268,245.346695 
	C209.322021,246.879868 209.160858,248.515930 208.403381,250.017990 
	C208.344376,243.652878 206.963181,237.260315 209.437073,231.049667 
	C209.732712,230.307449 210.182678,229.067200 209.857101,228.722198 
	C205.894318,224.523254 210.817581,222.627518 212.353912,220.402878 
	C215.515076,215.825439 216.491394,210.924393 217.047043,204.839645 
	C212.391876,208.123642 210.123611,212.969070 204.983124,214.647736 
z"/>
<path fill="white" opacity="1.000000" stroke="none" 
	d="
M131.997269,151.843750 
	C132.026031,154.586136 131.901001,158.080505 130.044479,158.308548 
	C127.308296,158.644638 126.081894,155.395752 125.110001,152.917282 
	C121.431206,143.535736 128.141571,138.028214 134.346893,135.393188 
	C135.355011,134.965103 136.254044,135.058319 137.139847,135.699051 
	C137.667023,136.080383 138.248367,136.386795 138.805359,136.726898 
	C141.351349,131.898483 146.000793,133.683990 149.352325,134.338318 
	C153.287354,135.106552 158.201828,130.109085 161.217026,136.173553 
	C161.631378,137.006973 162.575562,136.918503 163.431763,136.720886 
	C169.218719,135.385284 173.095520,137.019989 175.981537,141.989868 
	C178.707993,146.684937 178.150772,153.145615 174.617920,156.827744 
	C173.751022,157.731277 172.925079,159.209579 171.354660,158.521042 
	C169.920364,157.892197 170.010010,156.379868 170.010986,155.035919 
	C170.013260,151.900757 170.011703,148.765594 170.011703,145.194061 
	C166.061386,146.350357 161.738388,149.811386 160.647598,142.838776 
	C160.527618,142.071777 159.358353,141.897736 159.000198,142.222244 
	C156.176025,144.780853 153.902939,143.233200 151.623123,141.404022 
	C148.746841,145.489929 142.286377,139.427048 139.938995,145.639816 
	C139.152084,147.722534 137.228195,147.458191 132.765976,145.291138 
	C131.469543,147.208618 132.205338,149.394760 131.997269,151.843750 
z"/>
<path fill="white" opacity="1.000000" stroke="none" 
	d="
M82.992966,195.912476 
	C83.045082,196.463013 83.035522,196.639206 83.091461,196.791336 
	C84.392357,200.329025 87.025406,204.731567 90.002853,204.085495 
	C92.627907,203.515884 90.031982,198.537384 89.579758,195.737442 
	C88.932350,191.729004 88.905975,187.788513 89.139259,183.870758 
	C89.449356,178.663025 94.373657,177.140686 97.962334,173.988144 
	C98.303322,177.185287 95.934212,178.749573 95.035629,180.904007 
	C91.494865,189.393265 93.215408,197.761902 95.146179,206.172791 
	C95.439110,207.448837 95.837318,208.721939 95.931526,210.014999 
	C95.995995,210.899811 96.348076,212.309647 95.080833,212.510773 
	C94.265259,212.640228 93.091805,212.096390 92.454750,211.471176 
	C90.570709,209.622238 88.906898,207.551147 87.085098,205.635284 
	C86.444862,204.961990 85.672958,203.863251 84.628334,204.624939 
	C84.138016,204.982468 84.025406,206.104309 84.043495,206.872696 
	C84.159302,211.791351 86.274048,216.060135 88.699181,220.160233 
	C90.272575,222.820328 92.452950,225.114914 91.111610,228.680237 
	C90.372337,230.645248 91.440651,232.757065 92.334778,234.381393 
	C94.412308,238.155594 94.063782,242.024948 93.582405,246.079971 
	C91.295494,238.635742 86.800728,232.444077 82.631760,226.072144 
	C82.091263,225.246048 81.307365,223.923096 81.990257,223.465393 
	C86.584717,220.386002 82.770836,218.060867 81.262192,215.844513 
	C77.838264,210.814392 75.934914,205.282120 75.043961,199.352798 
	C74.772026,197.543060 75.201820,195.787720 75.852203,194.022415 
	C76.669235,191.804794 77.738220,188.816422 79.611931,188.661545 
	C81.835175,188.477798 81.473701,191.866272 82.308884,193.665237 
	C82.584488,194.258896 82.747368,194.904877 82.992966,195.912476 
z"/>
<path fill="white" opacity="1.000000" stroke="none" 
	d="
M164.256165,213.244110 
	C166.266281,210.900925 168.022537,208.810715 170.097778,206.340881 
	C171.117233,212.446121 172.258255,218.048843 168.265076,223.730789 
	C165.865768,227.144791 164.169037,227.683884 161.303375,224.822128 
	C160.634720,224.154388 159.812637,223.640305 158.899734,222.929916 
	C158.449142,228.282639 157.218750,229.155899 152.584183,226.923935 
	C150.719620,226.025986 149.981369,227.020721 148.663025,227.566513 
	C145.088882,229.046219 143.356781,227.652435 143.502823,223.670471 
	C142.907974,222.937241 142.363586,223.546188 141.754303,223.678558 
	C139.610703,224.144287 138.987167,228.142578 136.473190,226.698135 
	C133.401718,224.933411 131.504669,221.689453 131.129044,218.113708 
	C130.753067,214.534775 131.046478,210.885513 131.520615,207.024368 
	C134.281448,210.564072 137.609894,213.296448 140.735168,216.239578 
	C142.314331,217.726715 143.780273,219.085922 145.428619,216.267609 
	C146.122772,215.080780 147.231674,214.961594 148.419632,215.763382 
	C150.076492,216.881638 151.758804,216.942093 153.485764,215.840286 
	C154.161316,215.409286 155.105820,214.731506 155.734024,215.536880 
	C160.079880,221.108429 161.428345,214.868896 164.256165,213.244110 
z"/>
<path fill="white" opacity="1.000000" stroke="none" 
	d="
M183.786865,17.927599 
	C185.862457,19.080500 187.002625,19.834316 184.738159,21.915779 
	C179.905045,26.358278 174.434372,29.690744 168.291855,31.688442 
	C161.255402,33.976871 154.693390,28.890093 154.219284,21.372595 
	C154.100311,19.486334 154.992874,19.068981 156.526840,19.038015 
	C162.556152,18.916298 168.153717,17.274553 173.671387,14.836601 
	C177.413132,13.183335 180.548355,15.623865 183.786865,17.927599 
z"/>
<path fill="white" opacity="1.000000" stroke="none" 
	d="
M128.440369,29.740437 
	C123.775742,27.755295 120.596199,24.254961 116.677719,21.853085 
	C114.848648,20.731941 115.566238,19.681763 116.766106,18.847553 
	C120.930038,15.952599 124.891716,12.827812 130.578430,15.909362 
	C134.795609,18.194599 139.728653,18.479357 144.461929,18.941032 
	C146.833008,19.172306 147.753815,19.233130 147.214142,22.308735 
	C145.599594,31.510149 139.468933,34.214031 128.440369,29.740437 
z"/>
<path fill="white" opacity="1.000000" stroke="none" 
	d="
M90.101608,103.056091 
	C90.083878,105.733139 88.770210,106.524391 85.854134,106.566422 
	C90.585068,100.201607 90.112450,92.805847 91.939209,86.007713 
	C92.606895,83.522980 94.591026,83.283562 96.240318,82.493492 
	C98.087868,81.608437 98.104828,83.851715 99.001480,84.596619 
	C100.435509,85.787971 99.632545,86.934929 98.567390,87.902603 
	C94.152603,91.913368 92.031395,97.222649 90.101608,103.056091 
z"/>
<path fill="white" opacity="1.000000" stroke="none" 
	d="
M215.437637,107.235565 
	C212.919769,106.899506 212.358093,105.650047 211.922150,103.790230 
	C210.545181,97.915924 207.921173,92.556595 203.651764,88.257385 
	C201.568100,86.159149 202.660370,84.951370 203.929153,83.270248 
	C205.651733,80.987831 206.970001,83.036713 208.032532,83.746101 
	C210.656418,85.497917 210.637909,88.677406 210.868546,91.326790 
	C211.320480,96.518089 212.538162,101.347908 215.516113,106.059601 
	C215.793869,106.697861 215.868484,107.041115 215.437637,107.235565 
z"/>
<path fill="white" opacity="1.000000" stroke="none" 
	d="
M170.101959,179.078400 
	C168.769699,178.087662 168.815994,177.042786 169.501770,175.974701 
	C169.562836,175.879593 170.143219,175.950485 170.307892,176.116928 
	C171.263275,177.082703 171.169418,178.121964 170.101959,179.078400 
z"/>
<path fill="white" opacity="1.000000" stroke="none" 
	d="
M130.768356,179.450684 
	C131.360214,177.964508 130.326950,175.822159 132.079300,176.137772 
	C133.509186,176.395279 133.095947,178.150223 131.900406,179.476303 
	C131.318130,179.789978 130.970917,179.879333 130.768356,179.450684 
z"/>
<path fill="white" opacity="1.000000" stroke="none" 
	d="
M211.371719,127.443672 
	C212.309036,128.175797 211.845032,129.009079 211.190292,129.846634 
	C211.190292,129.095779 211.190292,128.344940 211.371719,127.443672 
z"/>
<path fill="white" opacity="1.000000" stroke="none" 
	d="
M61.894691,221.120850 
	C62.965763,221.790390 64.083168,223.161469 63.230484,223.935944 
	C62.488811,224.609619 62.135509,222.863724 61.491333,221.922394 
	C61.454983,221.567780 61.580597,221.440063 61.894691,221.120850 
z"/>
<path fill="white" opacity="1.000000" stroke="none" 
	d="
M182.871979,101.902817 
	C182.898727,102.867188 182.787155,104.093262 181.788437,103.782814 
	C180.796143,103.474365 181.193268,102.473816 182.040115,101.589828 
	C182.395569,101.495018 182.531708,101.611504 182.871979,101.902817 
z"/>
<path fill="white" opacity="1.000000" stroke="none" 
	d="
M103.522369,257.491272 
	C103.769310,256.864594 104.204254,256.429810 104.639198,255.995056 
	C105.033508,256.619385 104.989891,257.220001 104.313950,257.932800 
	C103.961105,257.939056 103.835739,257.811127 103.522369,257.491272 
z"/>
<path fill="white" opacity="1.000000" stroke="none" 
	d="
M131.477325,179.508636 
	C131.230423,180.135269 130.795471,180.569901 130.360519,181.004532 
	C129.966217,180.380280 130.009811,179.779739 130.685608,179.066910 
	C131.038452,179.060684 131.163849,179.188660 131.477325,179.508636 
z"/>
<path fill="white" opacity="1.000000" stroke="none" 
	d="
M168.522339,80.537491 
	C168.983856,80.755325 169.248596,81.156036 169.513336,81.556747 
	C169.069183,81.545143 168.625046,81.533546 168.056641,81.304245 
	C168.063416,80.964493 168.194473,80.842430 168.522339,80.537491 
z"/>
<path fill="white" opacity="1.000000" stroke="none" 
	d="
M84.875275,58.899071 
	C84.684441,59.323250 84.222054,59.834942 83.925987,59.752117 
	C83.040955,59.504536 83.743759,59.056908 84.111969,58.518272 
	C84.418755,58.469467 84.549248,58.592144 84.875275,58.899071 
z"/>
<path fill="white" opacity="1.000000" stroke="none" 
	d="
M127.100983,98.875259 
	C126.676758,98.684387 126.164963,98.221954 126.247803,97.925926 
	C126.495453,97.040932 126.943108,97.743668 127.481766,98.112015 
	C127.530556,98.418816 127.407890,98.549286 127.100983,98.875259 
z"/>
<path fill="white" opacity="1.000000" stroke="none" 
	d="
M238.462433,224.522415 
	C238.244614,224.983963 237.843872,225.248611 237.443115,225.513245 
	C237.454712,225.069077 237.466293,224.624908 237.695572,224.056458 
	C238.035339,224.063293 238.157440,224.194412 238.462433,224.522415 
z"/>
<path fill="white" opacity="1.000000" stroke="none" 
	d="
M215.522385,106.537521 
	C215.983948,106.755341 216.248642,107.156082 216.513336,107.556824 
	C216.069153,107.545258 215.624969,107.533691 215.056488,107.304443 
	C215.063293,106.964653 215.194397,106.842552 215.522385,106.537521 
z"/>
<path fill="white" opacity="1.000000" stroke="none" 
	d="
M125.183441,108.541069 
	C124.795403,108.560036 124.562965,108.404808 124.330536,108.249580 
	C124.420044,108.118271 124.509560,107.986961 124.599060,107.855652 
	C124.845718,108.026062 125.092369,108.196472 125.183441,108.541069 
z"/>
<path fill="white" opacity="1.000000" stroke="none" 
	d="
M176.600098,109.028450 
	C176.466110,109.397667 176.044632,109.699852 176.017487,109.667816 
	C175.458008,109.007744 176.057983,108.946655 176.600098,109.028450 
z"/>
<path fill="white" opacity="1.000000" stroke="none" 
	d="
M218.793121,60.688400 
	C218.557312,60.397305 218.556976,60.122765 218.556641,59.848228 
	C218.707214,59.884960 218.969482,59.892685 218.987930,59.963734 
	C219.048904,60.198490 219.021835,60.456116 218.793121,60.688400 
z"/>
<path fill="white" opacity="1.000000" stroke="none" 
	d="
M22.898735,33.124947 
	C23.323000,33.315876 23.834980,33.778347 23.752119,34.074249 
	C23.504301,34.959229 23.056721,34.256329 22.518063,33.887962 
	C22.469259,33.581181 22.591902,33.450764 22.898735,33.124947 
z"/>
<path fill="white" opacity="1.000000" stroke="none" 
	d="
M245.898941,145.124786 
	C246.323135,145.315659 246.834946,145.778076 246.752106,146.074066 
	C246.504379,146.959137 246.056854,146.256042 245.518250,145.887894 
	C245.469421,145.581161 245.592072,145.450714 245.898941,145.124786 
z"/>
<path fill="white" opacity="1.000000" stroke="none" 
	d="
M27.875160,128.898926 
	C27.684338,129.323120 27.221954,129.834778 26.925810,129.751968 
	C26.040838,129.504486 26.743303,129.056702 27.111679,128.518005 
	C27.418537,128.469238 27.549061,128.591934 27.875160,128.898926 
z"/>
</svg>