<svg version="1.1" id="Layer_1" xmlns="http://www.w3.org/2000/svg" xmlns:xlink="http://www.w3.org/1999/xlink" x="0px" y="0px"
	 width="100%" viewBox="0 0 320 325" enable-background="new 0 0 320 325" xml:space="preserve">
<path fill="rgb(113, 107, 98)" opacity="1" stroke="none" 
	d="
M48.000000,1.000001 
	C49.066673,1.000000 50.133347,1.000000 51.559723,1.322403 
	C52.755836,2.263300 53.508888,3.092452 54.443668,3.462376 
	C57.785252,4.784750 61.334759,5.654178 64.541031,7.232452 
	C74.265289,12.019187 83.700569,17.426138 93.579842,21.851652 
	C99.014854,24.286322 105.381203,27.198282 110.862846,26.457153 
	C123.508766,24.747402 135.228607,25.068823 146.814346,31.065325 
	C153.890686,34.727863 161.544312,35.507011 169.590652,32.722336 
	C176.154602,30.450686 182.137665,26.745209 189.592896,26.380312 
	C196.238449,26.055044 202.745941,23.962179 209.376358,26.592503 
	C210.520569,27.046421 212.051743,27.025272 213.271683,26.710373 
	C225.222427,23.625553 236.493469,18.896450 247.081024,12.530489 
	C255.057465,7.734512 262.812286,2.348966 272.732117,2.407734 
	C273.151978,2.410221 273.577240,1.490242 274.000000,1.000000 
	C275.714386,1.000000 277.428802,1.000000 279.567017,1.355903 
	C285.719788,6.330568 292.085327,10.359915 297.032257,15.702728 
	C304.957031,24.261631 308.164246,34.721970 305.012817,46.385582 
	C303.660217,51.391590 300.530426,56.160629 300.234314,61.157413 
	C299.647247,71.064331 295.479706,79.325912 291.058014,87.744820 
	C289.856354,90.032799 289.206940,93.133820 289.618225,95.646568 
	C290.790131,102.805908 292.378021,109.925583 294.286621,116.928856 
	C296.779724,126.076859 298.619812,135.492249 309.166870,139.914978 
	C314.469543,142.138580 314.386169,148.883957 309.363007,151.904068 
	C306.196320,153.807983 306.271973,155.207672 307.707153,158.111862 
	C314.180695,171.211731 319.453766,184.674164 319.081879,199.692566 
	C319.054993,200.778549 320.330200,201.896759 321.000000,203.000000 
	C321.000000,204.714401 321.000000,206.428787 320.596069,208.623123 
	C319.790802,210.276459 319.023956,211.457153 319.047241,212.622040 
	C319.200195,220.265778 316.943115,227.230591 313.120331,233.693909 
	C312.371735,234.959610 310.536133,235.582397 309.201874,236.501709 
	C308.745514,235.169250 308.255493,233.847061 307.844910,232.500656 
	C307.579010,231.628830 307.429230,230.721588 307.039215,228.998840 
	C305.604340,231.087433 304.686279,232.535812 303.658173,233.901352 
	C298.447815,240.821823 293.384125,247.862564 287.938751,254.593964 
	C279.823029,264.626404 268.232330,269.855621 257.278046,275.874023 
	C255.636307,276.776001 253.365372,276.532776 251.018433,276.872467 
	C252.227798,273.818512 252.969818,271.944763 253.711838,270.070984 
	C252.108185,269.813934 251.605118,270.128815 251.152664,270.504639 
	C241.693192,278.362793 231.197540,283.823151 218.865234,285.869629 
	C215.093094,286.495605 210.992966,288.080475 209.529190,292.881012 
	C207.641052,299.073273 203.546570,303.968719 198.603943,307.936432 
	C196.322052,309.768219 193.192596,311.400604 190.429230,311.430359 
	C188.952469,311.446259 187.436981,307.862823 185.756042,305.664551 
	C186.000412,305.524811 185.553741,305.675995 185.246017,305.971741 
	C179.843735,311.163483 174.607651,316.541901 168.996002,321.495209 
	C166.752914,323.475189 163.689835,324.526154 161.000000,326.000000 
	C160.555557,326.000000 160.111099,326.000000 159.321228,325.646973 
	C153.109650,320.893005 147.086426,316.681061 141.452759,312.000336 
	C139.116501,310.059265 137.613220,307.115692 135.483307,304.300446 
	C135.088242,305.601196 134.916748,306.237213 134.702942,306.858643 
	C132.739197,312.566101 132.142090,312.976379 126.697044,309.851288 
	C121.689156,306.977051 117.849625,303.032928 114.988571,297.651489 
	C112.111702,292.240295 109.969963,285.333405 101.091125,285.837402 
	C97.424561,286.045532 93.380203,283.923096 89.896172,282.112915 
	C82.851501,278.452759 76.072273,274.281769 69.247681,270.358276 
	C69.239532,270.446350 69.171967,271.083374 69.123322,271.721802 
	C69.012070,273.182007 68.910065,274.642853 68.804314,276.103455 
	C67.456055,275.862671 65.970154,275.905273 64.784683,275.329407 
	C60.815052,273.401123 57.001419,271.152802 53.039742,269.206818 
	C43.242310,264.394348 35.429333,257.184082 28.843683,248.693314 
	C24.145912,242.636551 20.079901,236.089798 15.770032,229.817108 
	C14.717443,232.295639 13.697468,234.697372 12.520829,237.468002 
	C11.294831,236.552231 10.657312,236.269653 10.301931,235.781616 
	C4.670480,228.048035 3.666324,218.702011 2.807386,209.797623 
	C2.085474,202.313736 3.362936,194.384964 5.117690,186.975815 
	C7.491220,176.954010 11.224543,167.257935 14.209314,157.372253 
	C14.561094,156.207138 14.346563,154.299957 13.590657,153.461838 
	C7.556519,146.771393 7.330947,141.671555 16.035053,137.431290 
	C20.426828,135.291809 23.602371,131.994171 25.097841,127.436302 
	C26.663364,122.664932 27.758171,117.733559 28.940897,112.843628 
	C30.243975,107.456108 31.010603,101.899513 32.783428,96.678902 
	C33.943802,93.261841 33.377247,91.047745 31.552528,88.075813 
	C28.348862,82.857956 25.505646,77.301064 23.398222,71.560623 
	C21.245882,65.697845 20.214737,59.428783 18.581833,53.367466 
	C17.884474,50.778881 15.927385,48.143681 16.227997,45.740463 
	C17.397036,36.394650 16.458204,26.554575 22.678846,18.261408 
	C28.743896,10.175671 34.545734,2.073313 46.323471,2.812069 
	C46.842384,2.844618 47.439377,1.632401 48.000000,1.000001 
M43.495060,47.929279 
	C43.629578,47.310326 43.764095,46.691372 44.485394,45.809380 
	C45.633457,44.877438 46.781521,43.945496 48.646248,43.045513 
	C49.388611,42.523613 50.130978,42.001709 50.873344,41.479809 
	C50.798035,41.124298 50.722729,40.768784 50.647423,40.413273 
	C47.022739,40.663246 43.398056,40.913219 39.773373,41.163193 
	C40.633377,38.623817 41.986458,36.835331 43.728497,35.591675 
	C45.542770,34.296452 47.732395,33.526997 50.822422,32.002445 
	C47.925087,31.531557 46.178001,31.105812 44.411888,31.001198 
	C42.709263,30.900345 40.986992,31.131096 38.972538,31.231096 
	C42.028332,24.536839 49.030407,21.649792 55.323666,24.532654 
	C58.899960,26.170906 62.109459,28.670120 65.348129,30.972891 
	C72.602280,36.130753 80.621132,36.871151 86.134949,33.211468 
	C79.328430,28.784494 72.366264,24.059286 65.193977,19.678053 
	C61.822678,17.618671 58.186977,15.759118 54.425495,14.620002 
	C46.610996,12.253481 39.631775,14.057073 33.999454,20.197325 
	C28.192005,26.528502 24.433126,33.534832 27.562685,43.357689 
	C29.282976,40.961365 31.003269,38.565044 32.723560,36.168724 
	C30.183350,52.391068 32.896755,68.195396 40.619236,74.345802 
	C41.272377,71.367882 42.903629,68.415062 42.229790,66.147102 
	C40.340252,59.787445 40.698742,53.791550 42.975090,47.874607 
	C42.975090,47.874607 42.828598,47.965317 43.495060,47.929279 
M79.146309,168.135971 
	C82.242943,177.091507 87.293442,183.880737 99.044006,185.464569 
	C92.604317,179.533585 88.875496,173.644104 88.751511,165.670288 
	C93.663872,170.999893 99.031326,175.111389 107.578850,176.183655 
	C103.114616,172.433563 99.237495,169.797928 98.879288,164.232346 
	C108.008514,168.238098 116.526199,170.432144 124.473495,163.025345 
	C117.234108,163.268036 110.013885,164.359177 103.258530,160.438065 
	C95.298416,155.817642 95.444038,148.947021 98.421783,140.485825 
	C92.299797,141.400681 87.209846,142.161316 82.119896,142.921936 
	C81.796837,142.411453 81.473778,141.900970 81.150719,141.390472 
	C85.902809,137.747360 90.404404,133.698044 95.474892,130.571274 
	C100.936356,127.203415 106.539940,127.532295 111.409943,132.403427 
	C117.533035,138.527924 123.602409,144.721146 130.009674,150.538055 
	C132.122955,152.456604 135.213440,153.298767 137.857117,154.633102 
	C138.069763,151.603912 138.903137,148.464600 138.388641,145.564407 
	C136.039246,132.320877 126.888168,124.240974 116.213661,117.448387 
	C114.843597,116.576569 113.505356,115.654739 112.152367,114.756073 
	C112.397064,114.256996 112.641762,113.757912 112.886459,113.258835 
	C118.506203,114.715782 124.125946,116.172722 131.269485,118.024712 
	C127.622406,109.599617 124.456718,102.286568 121.291031,94.973518 
	C121.593582,94.636154 121.896141,94.298782 122.198692,93.961418 
	C127.103027,98.104408 132.007355,102.247391 136.911697,106.390381 
	C137.264938,106.305206 137.618179,106.220032 137.971420,106.134850 
	C135.177216,98.389198 132.383026,90.643539 129.402451,82.381241 
	C137.040802,85.827515 141.950195,91.963722 146.980988,98.409882 
	C149.967773,88.745010 145.252609,73.213074 138.349777,68.598038 
	C138.560806,71.568825 138.771881,74.540314 139.041016,78.329262 
	C131.134750,74.029213 125.372200,67.849976 116.460106,66.772545 
	C117.530922,70.099541 118.351257,72.648331 119.423477,75.979691 
	C111.519585,73.524658 104.576233,71.367989 97.632874,69.211311 
	C97.443779,69.625374 97.254684,70.039436 97.065590,70.453506 
	C99.828743,73.471855 102.591896,76.490211 105.355042,79.508560 
	C105.084167,80.034569 104.813286,80.560570 104.542404,81.086571 
	C89.009773,78.583427 74.046852,80.992828 59.270157,85.916512 
	C64.963020,76.662125 73.660927,72.379875 83.717033,70.122757 
	C83.831413,69.597336 83.945793,69.071915 84.060173,68.546494 
	C79.642311,64.869881 75.224457,61.193268 70.216476,57.025551 
	C80.387665,53.297398 89.685707,54.951927 100.294861,58.195068 
	C97.695663,54.186329 95.842766,51.328606 93.639084,47.929863 
	C106.535538,48.598045 117.135910,53.478649 127.272881,59.763920 
	C127.702950,59.428654 128.133026,59.093384 128.563110,58.758118 
	C126.892082,53.923187 125.221062,49.088261 123.228577,43.323208 
	C142.884140,50.803989 153.273773,65.947479 160.987839,85.445732 
	C168.702301,65.902184 179.017365,50.701290 198.653030,43.425144 
	C196.720673,49.098701 195.069839,53.945698 193.419006,58.792694 
	C199.986465,56.766693 205.169571,53.766975 210.710449,51.750080 
	C216.108643,49.785126 221.872849,48.825722 227.476364,47.424831 
	C227.609573,47.880665 227.742783,48.336498 227.875992,48.792332 
	C226.079971,51.487232 224.283951,54.182129 221.940521,57.698402 
	C241.450607,53.843155 246.381180,53.911743 250.842377,57.759262 
	C246.523148,61.349049 242.182022,64.957031 237.840912,68.565018 
	C237.923782,69.115021 238.006668,69.665024 238.089554,70.215027 
	C248.311859,72.349144 257.028381,76.665443 263.557190,86.130402 
	C254.996185,84.194542 247.688553,81.867020 240.214966,81.040955 
	C232.656570,80.205521 224.933868,80.856750 217.283142,80.856750 
	C217.130707,80.350212 216.978287,79.843674 216.825851,79.337128 
	C219.519150,76.349922 222.212433,73.362717 224.905716,70.375504 
	C224.725464,69.973190 224.545197,69.570877 224.364944,69.168564 
	C217.410645,71.342506 210.456329,73.516441 202.587769,75.976173 
	C203.594391,72.597092 204.386032,69.939651 205.177689,67.282219 
	C204.821930,66.835663 204.466187,66.389099 204.110428,65.942535 
	C197.221146,69.843407 190.331848,73.744286 182.812546,78.001884 
	C183.093491,74.541260 183.323166,71.712090 183.570206,68.669281 
	C176.510620,73.891190 172.270264,87.972351 174.755997,98.242821 
	C177.554810,95.104103 179.933823,91.999344 182.764679,89.383560 
	C185.635529,86.730804 188.952682,84.561050 192.780182,81.641357 
	C189.537949,90.675865 186.766220,98.399361 183.994476,106.122864 
	C184.352493,106.187073 184.710510,106.251282 185.068527,106.315498 
	C189.973740,102.204735 194.878937,98.093971 199.784149,93.983215 
	C200.230835,94.397018 200.677505,94.810829 201.124191,95.224640 
	C197.461533,102.450157 192.828491,109.331520 191.955185,117.663185 
	C198.052094,116.139885 203.598145,114.754211 209.144211,113.368538 
	C209.291489,113.877922 209.438766,114.387299 209.586060,114.896675 
	C206.986313,116.622940 204.356491,118.305801 201.792252,120.083275 
	C192.603210,126.452942 185.445801,134.392639 183.452667,145.782516 
	C182.950272,148.653534 183.944473,151.786453 184.250931,154.799011 
	C186.770111,153.471802 189.701309,152.593903 191.730927,150.732803 
	C197.742752,145.220139 203.231461,139.134750 209.274857,133.659790 
	C211.763428,131.405273 214.976547,129.182449 218.156830,128.618500 
	C224.905060,127.421852 237.155624,135.915588 239.885086,142.982712 
	C234.653641,142.198746 229.533310,141.431427 223.475510,140.523636 
	C226.679901,149.236343 226.817307,156.931549 218.290833,160.260315 
	C211.887451,162.760208 204.529190,162.814194 197.782135,163.926407 
	C205.404816,170.621811 214.147858,168.056671 222.972702,164.402893 
	C223.274063,164.826172 223.575409,165.249466 223.876770,165.672745 
	C221.174301,169.082916 218.471817,172.493088 215.680634,176.015213 
	C223.418213,174.889923 229.102524,170.635376 233.934555,162.887436 
	C233.709244,172.829437 229.492737,179.042709 223.110977,185.591125 
	C239.522614,182.643082 242.479782,170.520142 245.165176,158.613098 
	C258.239746,159.668076 267.018066,167.646667 264.958344,176.553543 
	C260.759918,173.569809 256.473816,170.965332 250.403351,172.767670 
	C256.380066,177.789124 259.100525,183.499710 257.878235,191.618942 
	C253.474060,186.841843 249.357162,183.179153 242.845276,184.006775 
	C254.052567,197.667175 255.387848,223.525238 245.167297,233.276093 
	C243.558762,226.204788 241.965378,219.314972 235.967560,214.467575 
	C238.575943,226.478516 237.054169,238.084900 232.378113,249.601959 
	C237.986740,249.322189 243.061096,246.857697 248.053452,241.877304 
	C259.003693,230.953247 262.749817,217.480286 260.953400,202.162949 
	C261.442139,202.069458 261.930878,201.975967 262.419647,201.882462 
	C264.514984,205.940338 266.610321,209.998215 268.859833,214.354584 
	C273.332336,207.278946 272.897095,199.572296 272.205780,191.348129 
	C279.261353,194.513870 279.645905,200.560806 281.014130,207.460327 
	C292.735413,188.286194 289.779510,169.553497 285.278442,150.604111 
	C290.165985,149.145706 295.874176,150.483749 299.645416,145.011139 
	C289.524445,140.633133 287.172485,131.770660 284.834137,122.771164 
	C280.988190,107.969681 277.258575,93.122856 272.820557,78.495201 
	C269.388733,67.183838 263.323242,57.137638 254.114532,49.495487 
	C251.469681,47.300552 247.756699,46.151703 244.346771,45.174904 
	C238.939316,43.625908 233.221344,43.084827 227.904465,41.309551 
	C209.571365,35.188229 191.433044,33.706474 173.526428,42.550888 
	C164.994385,46.765022 156.731064,46.605091 148.181473,42.422997 
	C130.812149,33.926666 113.085739,35.027699 95.232765,40.971043 
	C90.672401,42.489216 85.966194,44.469276 81.294014,44.561226 
	C72.027382,44.743595 66.027023,49.683609 61.077381,56.460651 
	C57.758041,61.005470 54.061096,65.677551 52.312222,70.889648 
	C47.351227,85.674713 43.298626,100.764816 38.899040,115.737953 
	C35.668037,126.734024 35.217773,139.206528 22.314600,145.165482 
	C26.162455,150.362885 31.649017,149.196259 35.814621,150.337326 
	C34.762474,160.099060 33.300636,169.597351 32.832096,179.144424 
	C32.357201,188.820908 34.682892,197.980026 41.175804,207.436554 
	C42.168114,200.249054 42.891102,194.469101 49.416580,191.505508 
	C49.416580,195.871384 49.017284,199.675720 49.527798,203.353760 
	C50.048378,207.104401 51.463306,210.730911 52.685028,215.125229 
	C55.426910,209.897690 57.546825,205.855972 59.666737,201.814240 
	C60.583908,228.206818 73.472099,249.977127 89.626457,249.350220 
	C84.588547,238.000092 83.774246,226.341019 85.647743,214.211685 
	C83.275597,216.914505 81.226433,219.681396 79.863968,222.752884 
	C78.428085,225.989883 77.648026,229.517807 76.538933,233.054123 
	C66.661797,223.423798 67.922356,198.948715 78.943626,184.036957 
	C72.340553,182.861496 68.446922,187.484833 63.849407,191.375031 
	C62.923233,183.363953 65.828918,177.566910 71.055618,172.365585 
	C68.222549,172.217346 65.731293,172.248260 63.475388,172.992554 
	C61.059677,173.789551 58.865639,175.258392 56.446251,176.500031 
	C56.254166,169.177826 60.155918,163.630051 67.349129,160.632370 
	C75.747444,157.132446 76.531479,157.499969 78.584709,165.897552 
	C78.703384,166.382935 78.827095,166.867081 79.146309,168.135971 
M186.807922,172.201111 
	C181.926514,172.201111 177.045105,172.201111 170.575806,172.201111 
	C174.092880,169.343414 176.847382,167.105331 179.520874,164.933044 
	C173.110977,160.460876 168.080704,162.003555 160.996735,170.819794 
	C153.572479,161.940918 149.135681,160.563965 142.411331,164.863693 
	C145.069275,167.112183 147.809891,169.430618 150.550522,171.749054 
	C129.903275,172.046936 123.957146,174.821335 125.765846,184.173645 
	C129.778061,184.173645 133.841309,184.173645 139.311829,184.173645 
	C137.325912,185.847366 136.654251,186.543991 135.864288,187.059204 
	C127.189278,192.717194 121.665970,200.577957 119.817307,210.766296 
	C116.573357,228.644379 117.995544,246.622437 119.298149,264.549438 
	C119.686249,269.890533 123.444565,272.821747 128.799286,272.988770 
	C135.781006,273.206512 142.779816,273.303192 149.757645,273.060486 
	C154.069214,272.910553 156.671936,270.482391 156.787415,265.071442 
	C153.594467,265.071442 150.617126,265.390106 147.741226,264.986359 
	C144.541504,264.537140 140.028503,264.456787 138.542557,262.422455 
	C133.506393,255.527618 128.196823,248.295746 125.528618,240.341644 
	C122.067650,230.024231 129.988586,221.078568 140.687332,221.078415 
	C154.185715,221.078232 167.684097,221.078003 181.182480,221.078430 
	C190.925919,221.078751 195.303284,224.292175 196.606476,233.923645 
	C197.132080,237.808167 196.190521,242.275055 194.662125,245.955994 
	C192.773819,250.503738 189.604645,254.525070 186.942459,258.744537 
	C184.132065,263.198944 180.181671,265.419189 174.792633,265.086670 
	C171.605911,264.889984 168.397125,265.050659 164.930679,265.050659 
	C165.529587,270.511871 167.915115,272.916626 172.143723,273.054840 
	C178.462784,273.261414 184.808487,273.467346 191.112579,273.121613 
	C199.940521,272.637390 202.672211,270.022766 203.051071,261.083557 
	C203.601028,248.107056 204.031891,235.095139 203.696045,222.119492 
	C203.311676,207.268661 198.405899,194.359314 184.876572,186.166107 
	C184.418198,185.888519 184.223007,185.176346 183.438675,183.918884 
	C188.312897,183.918884 192.480133,183.918884 196.632202,183.918884 
	C196.622177,177.419617 194.379318,174.618668 186.807922,172.201111 
M239.728165,34.911663 
	C246.643967,36.617222 252.273804,33.907978 257.801788,30.083176 
	C261.433899,27.570124 265.338287,25.097454 269.492828,23.780048 
	C274.964569,22.044947 281.298126,26.040617 282.447418,30.911654 
	C279.101624,31.124588 275.723785,31.339561 272.345947,31.554535 
	C275.993195,34.764858 281.160828,35.601486 282.515564,41.281509 
	C278.226410,40.964508 274.734070,40.706398 271.241730,40.448288 
	C280.905975,47.053036 282.765442,55.360214 279.828064,65.770760 
	C279.134216,68.229858 280.809509,71.357422 281.394958,74.177483 
	C281.936523,74.098816 282.478058,74.020157 283.019623,73.941490 
	C289.828491,62.420940 292.468750,50.246853 288.026825,36.962460 
	C288.568268,36.546280 289.109711,36.130096 289.651184,35.713917 
	C291.327637,38.195633 293.004089,40.677353 295.231476,43.974590 
	C295.725586,41.884975 295.955505,41.288391 295.997498,40.678860 
	C296.723022,30.152372 291.785004,22.382679 283.549255,16.654249 
	C276.062836,11.447001 268.336426,13.541890 260.870544,17.194479 
	C259.084412,18.068306 257.424896,19.202974 255.716339,20.232891 
	C248.929504,24.324026 242.143585,28.416714 235.377609,32.542072 
	C235.209564,32.644527 235.276886,33.132999 235.215759,33.577137 
	C236.450165,33.969349 237.696442,34.365337 239.728165,34.911663 
M185.970581,244.830414 
	C186.917023,241.859299 188.729767,238.795395 188.425873,235.958206 
	C188.284668,234.639999 184.045944,232.873306 181.637924,232.830887 
	C167.175476,232.576096 152.705063,232.734360 138.237717,232.821091 
	C134.249420,232.845001 132.440414,235.065231 133.001678,238.961548 
	C133.518982,242.552521 134.290619,246.116287 139.739243,244.639023 
	C139.068970,238.498444 143.646332,239.936859 147.021545,239.864868 
	C151.418991,239.771088 155.710815,244.563248 155.046112,249.171082 
	C154.345642,254.026779 150.266754,251.198929 147.754181,251.631134 
	C146.392303,251.865402 144.794205,250.629883 143.282547,250.116623 
	C141.706558,249.581497 140.106354,249.117630 138.023788,248.469086 
	C140.070435,255.258347 142.428635,257.243134 147.844086,257.259125 
	C156.660751,257.285187 165.477615,257.280029 174.294296,257.254883 
	C179.604706,257.239716 182.259811,254.900116 183.639816,248.604019 
	C182.009933,248.970047 180.647644,249.279770 179.283615,249.581619 
	C176.017883,250.304276 172.771317,251.160721 169.470093,251.640305 
	C168.709656,251.750778 166.939667,250.217041 167.020599,250.025421 
	C168.436493,246.672668 169.298035,242.478043 171.851578,240.370041 
	C174.921631,237.835648 180.492493,240.347336 182.081924,243.466049 
	C182.500443,244.287247 184.104782,244.504105 185.970581,244.830414 
M157.514984,284.018616 
	C163.338593,284.005524 169.165863,284.111206 174.984375,283.932220 
	C178.178818,283.833923 181.072830,282.914673 181.618286,278.700989 
	C167.536163,278.700989 153.941605,278.700989 140.347046,278.700989 
	C140.141129,279.345612 139.935226,279.990265 139.729324,280.634888 
	C142.165924,281.753021 144.507523,283.381958 147.063644,283.857361 
	C150.121109,284.426056 153.361969,284.008789 157.514984,284.018616 
M216.352814,150.486588 
	C216.216385,147.781265 216.079971,145.075943 215.943527,142.370621 
	C214.091766,142.539124 212.240005,142.707611 210.338303,142.880646 
	C211.946671,151.510300 210.343185,152.820770 202.030655,150.989929 
	C200.926010,150.746643 199.086899,152.060791 198.262314,153.159698 
	C197.911072,153.627808 198.984863,155.872635 199.941803,156.498245 
	C205.484299,160.121735 212.775955,157.664886 216.352814,150.486588 
M119.666969,150.519211 
	C117.257812,150.865906 113.790802,152.338303 112.684479,151.298645 
	C110.974258,149.691483 110.877663,146.367218 109.787560,142.743317 
	C105.912727,141.033020 104.682068,141.824326 105.025932,147.409134 
	C105.480682,154.795105 111.715797,159.556793 118.909653,157.673294 
	C120.806519,157.176666 122.389702,155.481964 124.116920,154.337418 
	C122.856461,152.937454 121.595993,151.537476 119.666969,150.519211 
z"/>
<path fill="transparent" opacity="1.000000" stroke="none" 
	d="
M47.531342,1.000001 
	C47.439377,1.632401 46.842384,2.844618 46.323471,2.812069 
	C34.545734,2.073313 28.743896,10.175671 22.678846,18.261408 
	C16.458204,26.554575 17.397036,36.394650 16.227997,45.740463 
	C15.927385,48.143681 17.884474,50.778881 18.581833,53.367466 
	C20.214737,59.428783 21.245882,65.697845 23.398222,71.560623 
	C25.505646,77.301064 28.348862,82.857956 31.552528,88.075813 
	C33.377247,91.047745 33.943802,93.261841 32.783428,96.678902 
	C31.010603,101.899513 30.243975,107.456108 28.940897,112.843628 
	C27.758171,117.733559 26.663364,122.664932 25.097841,127.436302 
	C23.602371,131.994171 20.426828,135.291809 16.035053,137.431290 
	C7.330947,141.671555 7.556519,146.771393 13.590657,153.461838 
	C14.346563,154.299957 14.561094,156.207138 14.209314,157.372253 
	C11.224543,167.257935 7.491220,176.954010 5.117690,186.975815 
	C3.362936,194.384964 2.085474,202.313736 2.807386,209.797623 
	C3.666324,218.702011 4.670480,228.048035 10.301931,235.781616 
	C10.657312,236.269653 11.294831,236.552231 12.520829,237.468002 
	C13.697468,234.697372 14.717443,232.295639 15.770032,229.817108 
	C20.079901,236.089798 24.145912,242.636551 28.843683,248.693314 
	C35.429333,257.184082 43.242310,264.394348 53.039742,269.206818 
	C57.001419,271.152802 60.815052,273.401123 64.784683,275.329407 
	C65.970154,275.905273 67.456055,275.862671 68.804314,276.103455 
	C68.910065,274.642853 69.012070,273.182007 69.123322,271.721802 
	C69.171967,271.083374 69.239532,270.446350 69.247681,270.358276 
	C76.072273,274.281769 82.851501,278.452759 89.896172,282.112915 
	C93.380203,283.923096 97.424561,286.045532 101.091125,285.837402 
	C109.969963,285.333405 112.111702,292.240295 114.988571,297.651489 
	C117.849625,303.032928 121.689156,306.977051 126.697044,309.851288 
	C132.142090,312.976379 132.739197,312.566101 134.702942,306.858643 
	C134.916748,306.237213 135.088242,305.601196 135.483307,304.300446 
	C137.613220,307.115692 139.116501,310.059265 141.452759,312.000336 
	C147.086426,316.681061 153.109650,320.893005 158.987885,325.646973 
	C106.376839,326.000000 53.753674,326.000000 1.065254,326.000000 
	C1.065254,217.666672 1.065254,109.333344 1.065254,1.000000 
	C16.421314,1.000000 31.741999,1.000000 47.531342,1.000001 
z"/>
<path fill="transparent" opacity="1.000000" stroke="none" 
	d="
M161.468658,326.000000 
	C163.689835,324.526154 166.752914,323.475189 168.996002,321.495209 
	C174.607651,316.541901 179.843735,311.163483 185.246017,305.971741 
	C185.553741,305.675995 186.000412,305.524811 185.756042,305.664551 
	C187.436981,307.862823 188.952469,311.446259 190.429230,311.430359 
	C193.192596,311.400604 196.322052,309.768219 198.603943,307.936432 
	C203.546570,303.968719 207.641052,299.073273 209.529190,292.881012 
	C210.992966,288.080475 215.093094,286.495605 218.865234,285.869629 
	C231.197540,283.823151 241.693192,278.362793 251.152664,270.504639 
	C251.605118,270.128815 252.108185,269.813934 253.711838,270.070984 
	C252.969818,271.944763 252.227798,273.818512 251.018433,276.872467 
	C253.365372,276.532776 255.636307,276.776001 257.278046,275.874023 
	C268.232330,269.855621 279.823029,264.626404 287.938751,254.593964 
	C293.384125,247.862564 298.447815,240.821823 303.658173,233.901352 
	C304.686279,232.535812 305.604340,231.087433 307.039215,228.998840 
	C307.429230,230.721588 307.579010,231.628830 307.844910,232.500656 
	C308.255493,233.847061 308.745514,235.169250 309.201874,236.501709 
	C310.536133,235.582397 312.371735,234.959610 313.120331,233.693909 
	C316.943115,227.230591 319.200195,220.265778 319.047241,212.622040 
	C319.023956,211.457153 319.790802,210.276459 320.596069,209.051529 
	C321.000000,247.938324 321.000000,286.876648 321.000000,326.000000 
	C267.979248,326.000000 214.958282,326.000000 161.468658,326.000000 
z"/>
<path fill="transparent" opacity="1.000000" stroke="none" 
	d="
M273.531342,1.000000 
	C273.577240,1.490242 273.151978,2.410221 272.732117,2.407734 
	C262.812286,2.348966 255.057465,7.734512 247.081024,12.530489 
	C236.493469,18.896450 225.222427,23.625553 213.271683,26.710373 
	C212.051743,27.025272 210.520569,27.046421 209.376358,26.592503 
	C202.745941,23.962179 196.238449,26.055044 189.592896,26.380312 
	C182.137665,26.745209 176.154602,30.450686 169.590652,32.722336 
	C161.544312,35.507011 153.890686,34.727863 146.814346,31.065325 
	C135.228607,25.068823 123.508766,24.747402 110.862846,26.457153 
	C105.381203,27.198282 99.014854,24.286322 93.579842,21.851652 
	C83.700569,17.426138 74.265289,12.019187 64.541031,7.232452 
	C61.334759,5.654178 57.785252,4.784750 54.443668,3.462376 
	C53.508888,3.092452 52.755836,2.263300 51.959713,1.322403 
	C125.687561,1.000000 199.375122,1.000000 273.531342,1.000000 
z"/>
<path fill="transparent" opacity="1.000000" stroke="none" 
	d="
M321.000000,202.531342 
	C320.330200,201.896759 319.054993,200.778549 319.081879,199.692566 
	C319.453766,184.674164 314.180695,171.211731 307.707153,158.111862 
	C306.271973,155.207672 306.196320,153.807983 309.363007,151.904068 
	C314.386169,148.883957 314.469543,142.138580 309.166870,139.914978 
	C298.619812,135.492249 296.779724,126.076859 294.286621,116.928856 
	C292.378021,109.925583 290.790131,102.805908 289.618225,95.646568 
	C289.206940,93.133820 289.856354,90.032799 291.058014,87.744820 
	C295.479706,79.325912 299.647247,71.064331 300.234314,61.157413 
	C300.530426,56.160629 303.660217,51.391590 305.012817,46.385582 
	C308.164246,34.721970 304.957031,24.261631 297.032257,15.702728 
	C292.085327,10.359915 285.719788,6.330568 279.995422,1.355903 
	C293.642029,1.000000 307.284027,1.000000 321.000000,1.000000 
	C321.000000,68.020874 321.000000,135.041779 321.000000,202.531342 
z"/>
<path fill="transparent" opacity="1.000000" stroke="none" 
	d="
M79.047394,167.743881 
	C78.827095,166.867081 78.703384,166.382935 78.584709,165.897552 
	C76.531479,157.499969 75.747444,157.132446 67.349129,160.632370 
	C60.155918,163.630051 56.254166,169.177826 56.446251,176.500031 
	C58.865639,175.258392 61.059677,173.789551 63.475388,172.992554 
	C65.731293,172.248260 68.222549,172.217346 71.055618,172.365585 
	C65.828918,177.566910 62.923233,183.363953 63.849407,191.375031 
	C68.446922,187.484833 72.340553,182.861496 78.943626,184.036957 
	C67.922356,198.948715 66.661797,223.423798 76.538933,233.054123 
	C77.648026,229.517807 78.428085,225.989883 79.863968,222.752884 
	C81.226433,219.681396 83.275597,216.914505 85.647743,214.211685 
	C83.774246,226.341019 84.588547,238.000092 89.626457,249.350220 
	C73.472099,249.977127 60.583908,228.206818 59.666737,201.814240 
	C57.546825,205.855972 55.426910,209.897690 52.685028,215.125229 
	C51.463306,210.730911 50.048378,207.104401 49.527798,203.353760 
	C49.017284,199.675720 49.416580,195.871384 49.416580,191.505508 
	C42.891102,194.469101 42.168114,200.249054 41.175804,207.436554 
	C34.682892,197.980026 32.357201,188.820908 32.832096,179.144424 
	C33.300636,169.597351 34.762474,160.099060 35.814621,150.337326 
	C31.649017,149.196259 26.162455,150.362885 22.314600,145.165482 
	C35.217773,139.206528 35.668037,126.734024 38.899040,115.737953 
	C43.298626,100.764816 47.351227,85.674713 52.312222,70.889648 
	C54.061096,65.677551 57.758041,61.005470 61.077381,56.460651 
	C66.027023,49.683609 72.027382,44.743595 81.294014,44.561226 
	C85.966194,44.469276 90.672401,42.489216 95.232765,40.971043 
	C113.085739,35.027699 130.812149,33.926666 148.181473,42.422997 
	C156.731064,46.605091 164.994385,46.765022 173.526428,42.550888 
	C191.433044,33.706474 209.571365,35.188229 227.904465,41.309551 
	C233.221344,43.084827 238.939316,43.625908 244.346771,45.174904 
	C247.756699,46.151703 251.469681,47.300552 254.114532,49.495487 
	C263.323242,57.137638 269.388733,67.183838 272.820557,78.495201 
	C277.258575,93.122856 280.988190,107.969681 284.834137,122.771164 
	C287.172485,131.770660 289.524445,140.633133 299.645416,145.011139 
	C295.874176,150.483749 290.165985,149.145706 285.278442,150.604111 
	C289.779510,169.553497 292.735413,188.286194 281.014130,207.460327 
	C279.645905,200.560806 279.261353,194.513870 272.205780,191.348129 
	C272.897095,199.572296 273.332336,207.278946 268.859833,214.354584 
	C266.610321,209.998215 264.514984,205.940338 262.419647,201.882462 
	C261.930878,201.975967 261.442139,202.069458 260.953400,202.162949 
	C262.749817,217.480286 259.003693,230.953247 248.053452,241.877304 
	C243.061096,246.857697 237.986740,249.322189 232.378113,249.601959 
	C237.054169,238.084900 238.575943,226.478516 235.967560,214.467575 
	C241.965378,219.314972 243.558762,226.204788 245.167297,233.276093 
	C255.387848,223.525238 254.052567,197.667175 242.845276,184.006775 
	C249.357162,183.179153 253.474060,186.841843 257.878235,191.618942 
	C259.100525,183.499710 256.380066,177.789124 250.403351,172.767670 
	C256.473816,170.965332 260.759918,173.569809 264.958344,176.553543 
	C267.018066,167.646667 258.239746,159.668076 245.165176,158.613098 
	C242.479782,170.520142 239.522614,182.643082 223.110977,185.591125 
	C229.492737,179.042709 233.709244,172.829437 233.934555,162.887436 
	C229.102524,170.635376 223.418213,174.889923 215.680634,176.015213 
	C218.471817,172.493088 221.174301,169.082916 223.876770,165.672745 
	C223.575409,165.249466 223.274063,164.826172 222.972702,164.402893 
	C214.147858,168.056671 205.404816,170.621811 197.782135,163.926407 
	C204.529190,162.814194 211.887451,162.760208 218.290833,160.260315 
	C226.817307,156.931549 226.679901,149.236343 223.475510,140.523636 
	C229.533310,141.431427 234.653641,142.198746 239.885086,142.982712 
	C237.155624,135.915588 224.905060,127.421852 218.156830,128.618500 
	C214.976547,129.182449 211.763428,131.405273 209.274857,133.659790 
	C203.231461,139.134750 197.742752,145.220139 191.730927,150.732803 
	C189.701309,152.593903 186.770111,153.471802 184.250916,154.799011 
	C183.944473,151.786453 182.950272,148.653534 183.452667,145.782516 
	C185.445801,134.392639 192.603210,126.452942 201.792252,120.083275 
	C204.356491,118.305801 206.986313,116.622940 209.586060,114.896675 
	C209.438766,114.387299 209.291489,113.877922 209.144211,113.368538 
	C203.598145,114.754211 198.052094,116.139885 191.955185,117.663185 
	C192.828491,109.331520 197.461533,102.450157 201.124191,95.224640 
	C200.677505,94.810829 200.230835,94.397018 199.784149,93.983215 
	C194.878937,98.093971 189.973740,102.204735 185.068527,106.315498 
	C184.710510,106.251282 184.352493,106.187073 183.994476,106.122864 
	C186.766220,98.399361 189.537949,90.675865 192.780182,81.641357 
	C188.952682,84.561050 185.635529,86.730804 182.764679,89.383560 
	C179.933823,91.999344 177.554810,95.104103 174.755997,98.242821 
	C172.270264,87.972351 176.510620,73.891190 183.570206,68.669281 
	C183.323166,71.712090 183.093491,74.541260 182.812546,78.001884 
	C190.331848,73.744286 197.221146,69.843407 204.110428,65.942535 
	C204.466187,66.389099 204.821930,66.835663 205.177689,67.282219 
	C204.386032,69.939651 203.594391,72.597092 202.587769,75.976173 
	C210.456329,73.516441 217.410645,71.342506 224.364944,69.168564 
	C224.545197,69.570877 224.725464,69.973190 224.905716,70.375504 
	C222.212433,73.362717 219.519150,76.349922 216.825851,79.337128 
	C216.978287,79.843674 217.130707,80.350212 217.283142,80.856750 
	C224.933868,80.856750 232.656570,80.205521 240.214966,81.040955 
	C247.688553,81.867020 254.996185,84.194542 263.557190,86.130402 
	C257.028381,76.665443 248.311859,72.349144 238.089554,70.215027 
	C238.006668,69.665024 237.923782,69.115021 237.840912,68.565018 
	C242.182022,64.957031 246.523148,61.349049 250.842377,57.759262 
	C246.381180,53.911743 241.450607,53.843155 221.940521,57.698402 
	C224.283951,54.182129 226.079971,51.487232 227.875992,48.792332 
	C227.742783,48.336498 227.609573,47.880665 227.476364,47.424831 
	C221.872849,48.825722 216.108643,49.785126 210.710449,51.750080 
	C205.169571,53.766975 199.986465,56.766693 193.419006,58.792694 
	C195.069839,53.945698 196.720673,49.098701 198.653030,43.425144 
	C179.017365,50.701290 168.702301,65.902184 160.987839,85.445732 
	C153.273773,65.947479 142.884140,50.803989 123.228577,43.323208 
	C125.221062,49.088261 126.892082,53.923187 128.563110,58.758118 
	C128.133026,59.093384 127.702950,59.428654 127.272881,59.763920 
	C117.135910,53.478649 106.535538,48.598045 93.639084,47.929863 
	C95.842766,51.328606 97.695663,54.186329 100.294861,58.195068 
	C89.685707,54.951927 80.387665,53.297398 70.216476,57.025551 
	C75.224457,61.193268 79.642311,64.869881 84.060173,68.546494 
	C83.945793,69.071915 83.831413,69.597336 83.717033,70.122757 
	C73.660927,72.379875 64.963020,76.662125 59.270157,85.916512 
	C74.046852,80.992828 89.009773,78.583427 104.542404,81.086571 
	C104.813286,80.560570 105.084167,80.034569 105.355042,79.508560 
	C102.591896,76.490211 99.828743,73.471855 97.065590,70.453506 
	C97.254684,70.039436 97.443779,69.625374 97.632874,69.211311 
	C104.576233,71.367989 111.519585,73.524658 119.423477,75.979691 
	C118.351257,72.648331 117.530922,70.099541 116.460106,66.772545 
	C125.372200,67.849976 131.134750,74.029213 139.041016,78.329262 
	C138.771881,74.540314 138.560806,71.568825 138.349777,68.598038 
	C145.252609,73.213074 149.967773,88.745010 146.980988,98.409882 
	C141.950195,91.963722 137.040802,85.827515 129.402451,82.381241 
	C132.383026,90.643539 135.177216,98.389198 137.971420,106.134850 
	C137.618179,106.220032 137.264938,106.305206 136.911697,106.390381 
	C132.007355,102.247391 127.103027,98.104408 122.198692,93.961418 
	C121.896141,94.298782 121.593582,94.636154 121.291031,94.973518 
	C124.456718,102.286568 127.622406,109.599617 131.269485,118.024712 
	C124.125946,116.172722 118.506203,114.715782 112.886459,113.258835 
	C112.641762,113.757912 112.397064,114.256996 112.152367,114.756073 
	C113.505356,115.654739 114.843597,116.576569 116.213661,117.448387 
	C126.888168,124.240974 136.039246,132.320877 138.388641,145.564407 
	C138.903137,148.464600 138.069763,151.603912 137.857117,154.633102 
	C135.213440,153.298767 132.122955,152.456604 130.009674,150.538055 
	C123.602409,144.721146 117.533035,138.527924 111.409943,132.403427 
	C106.539940,127.532295 100.936356,127.203415 95.474892,130.571274 
	C90.404404,133.698044 85.902809,137.747360 81.150719,141.390472 
	C81.473778,141.900970 81.796837,142.411453 82.119896,142.921936 
	C87.209846,142.161316 92.299797,141.400681 98.421783,140.485825 
	C95.444038,148.947021 95.298416,155.817642 103.258530,160.438065 
	C110.013885,164.359177 117.234108,163.268036 124.473495,163.025345 
	C116.526199,170.432144 108.008514,168.238098 98.879288,164.232346 
	C99.237495,169.797928 103.114616,172.433563 107.578850,176.183655 
	C99.031326,175.111389 93.663872,170.999893 88.751511,165.670288 
	C88.875496,173.644104 92.604317,179.533585 99.044006,185.464569 
	C87.293442,183.880737 82.242943,177.091507 79.047394,167.743881 
M272.581238,170.173431 
	C272.957062,172.714920 273.332886,175.256409 273.825317,178.586411 
	C274.984039,177.312027 275.645020,176.811874 276.010315,176.148849 
	C280.565002,167.881653 280.577240,159.725937 275.474640,151.625931 
	C273.667542,148.757248 272.149811,145.706253 270.546753,142.822632 
	C276.354492,144.055817 281.305786,145.107147 286.257050,146.158463 
	C286.503632,145.602875 286.750183,145.047287 286.996735,144.491699 
	C276.972443,136.673981 272.896210,125.463280 268.827087,114.167053 
	C266.864838,108.719643 264.494507,103.363342 261.725281,98.283981 
	C260.129822,95.357498 257.369385,93.066124 255.133331,90.488876 
	C254.676285,90.815178 254.219238,91.141472 253.762207,91.467773 
	C259.620300,103.520042 262.528442,116.351837 265.436127,129.183762 
	C264.996338,129.420273 264.556519,129.656799 264.116730,129.893311 
	C260.874481,128.256210 257.632233,126.619110 254.389984,124.982002 
	C253.940521,125.325272 253.491074,125.668541 253.041611,126.011810 
	C256.364594,132.694046 259.687592,139.376297 262.899414,145.835037 
	C260.283936,146.188248 257.216370,146.602524 254.148819,147.016785 
	C262.740143,153.036102 269.783264,159.327560 272.581238,170.173431 
M56.030087,106.561546 
	C50.391632,119.920090 47.616749,134.831131 34.293999,144.875961 
	C40.907280,146.655457 45.797489,144.576492 51.428959,142.258026 
	C44.777817,153.675568 37.548138,164.932205 47.974049,177.735199 
	C48.571625,163.560104 56.404476,154.341614 67.817535,146.930893 
	C64.702621,146.541367 61.587711,146.151855 58.081509,145.713409 
	C62.981842,139.313629 67.037025,133.001480 68.025803,124.762756 
	C64.219048,126.665695 60.936150,128.306763 57.653255,129.947830 
	C57.111950,129.577881 56.570648,129.207932 56.029343,128.837982 
	C59.795479,116.247131 63.561615,103.656281 67.457748,90.630829 
	C61.308220,94.283211 59.010342,100.220070 56.030087,106.561546 
M74.567764,135.068893 
	C88.219299,124.066406 89.324341,112.440742 77.261147,95.998077 
	C79.535210,110.990608 79.553528,124.520676 70.343521,136.473404 
	C70.747833,136.618668 71.152138,136.763931 71.556450,136.909195 
	C72.372795,136.439270 73.189133,135.969360 74.567764,135.068893 
M246.355652,126.984116 
	C241.348892,117.559364 244.077164,107.404877 244.233124,96.635361 
	C232.244263,113.492279 235.285828,130.340836 251.167465,136.745560 
	C249.572235,133.457001 248.161606,130.548996 246.355652,126.984116 
z"/>
<path fill="transparent" opacity="1.000000" stroke="none" 
	d="
M187.222473,172.285797 
	C194.379318,174.618668 196.622177,177.419617 196.632202,183.918884 
	C192.480133,183.918884 188.312897,183.918884 183.438675,183.918884 
	C184.223007,185.176346 184.418198,185.888519 184.876572,186.166107 
	C198.405899,194.359314 203.311676,207.268661 203.696045,222.119492 
	C204.031891,235.095139 203.601028,248.107056 203.051071,261.083557 
	C202.672211,270.022766 199.940521,272.637390 191.112579,273.121613 
	C184.808487,273.467346 178.462784,273.261414 172.143723,273.054840 
	C167.915115,272.916626 165.529587,270.511871 164.930679,265.050659 
	C168.397125,265.050659 171.605911,264.889984 174.792633,265.086670 
	C180.181671,265.419189 184.132065,263.198944 186.942459,258.744537 
	C189.604645,254.525070 192.773819,250.503738 194.662125,245.955994 
	C196.190521,242.275055 197.132080,237.808167 196.606476,233.923645 
	C195.303284,224.292175 190.925919,221.078751 181.182480,221.078430 
	C167.684097,221.078003 154.185715,221.078232 140.687332,221.078415 
	C129.988586,221.078568 122.067650,230.024231 125.528618,240.341644 
	C128.196823,248.295746 133.506393,255.527618 138.542557,262.422455 
	C140.028503,264.456787 144.541504,264.537140 147.741226,264.986359 
	C150.617126,265.390106 153.594467,265.071442 156.787415,265.071442 
	C156.671936,270.482391 154.069214,272.910553 149.757645,273.060486 
	C142.779816,273.303192 135.781006,273.206512 128.799286,272.988770 
	C123.444565,272.821747 119.686249,269.890533 119.298149,264.549438 
	C117.995544,246.622437 116.573357,228.644379 119.817307,210.766296 
	C121.665970,200.577957 127.189278,192.717194 135.864288,187.059204 
	C136.654251,186.543991 137.325912,185.847366 139.311829,184.173645 
	C133.841309,184.173645 129.778061,184.173645 125.765846,184.173645 
	C123.957146,174.821335 129.903275,172.046936 150.550522,171.749054 
	C147.809891,169.430618 145.069275,167.112183 142.411331,164.863693 
	C149.135681,160.563965 153.572479,161.940918 160.996735,170.819794 
	C168.080704,162.003555 173.110977,160.460876 179.520874,164.933044 
	C176.847382,167.105331 174.092880,169.343414 170.575806,172.201111 
	C177.045105,172.201111 181.926514,172.201111 187.222473,172.285797 
z"/>
<path fill="transparent" opacity="1.000000" stroke="none" 
	d="
M239.335449,34.836494 
	C237.696442,34.365337 236.450165,33.969349 235.215759,33.577137 
	C235.276886,33.132999 235.209564,32.644527 235.377609,32.542072 
	C242.143585,28.416714 248.929504,24.324026 255.716339,20.232891 
	C257.424896,19.202974 259.084412,18.068306 260.870544,17.194479 
	C268.336426,13.541890 276.062836,11.447001 283.549255,16.654249 
	C291.785004,22.382679 296.723022,30.152372 295.997498,40.678860 
	C295.955505,41.288391 295.725586,41.884975 295.231476,43.974590 
	C293.004089,40.677353 291.327637,38.195633 289.651184,35.713917 
	C289.109711,36.130096 288.568268,36.546280 288.026825,36.962460 
	C292.468750,50.246853 289.828491,62.420940 283.019623,73.941490 
	C282.478058,74.020157 281.936523,74.098816 281.394958,74.177483 
	C280.809509,71.357422 279.134216,68.229858 279.828064,65.770760 
	C282.765442,55.360214 280.905975,47.053036 271.241730,40.448288 
	C274.734070,40.706398 278.226410,40.964508 282.515564,41.281509 
	C281.160828,35.601486 275.993195,34.764858 272.345947,31.554535 
	C275.723785,31.339561 279.101624,31.124588 282.447418,30.911654 
	C281.298126,26.040617 274.964569,22.044947 269.492828,23.780048 
	C265.338287,25.097454 261.433899,27.570124 257.801788,30.083176 
	C252.273804,33.907978 246.643967,36.617222 239.335449,34.836494 
z"/>
<path fill="transparent" opacity="1.000000" stroke="none" 
	d="
M42.896420,47.721310 
	C40.698742,53.791550 40.340252,59.787445 42.229790,66.147102 
	C42.903629,68.415062 41.272377,71.367882 40.619236,74.345802 
	C32.896755,68.195396 30.183350,52.391068 32.723560,36.168724 
	C31.003269,38.565044 29.282976,40.961365 27.562685,43.357689 
	C24.433126,33.534832 28.192005,26.528502 33.999454,20.197325 
	C39.631775,14.057073 46.610996,12.253481 54.425495,14.620002 
	C58.186977,15.759118 61.822678,17.618671 65.193977,19.678053 
	C72.366264,24.059286 79.328430,28.784494 86.134949,33.211468 
	C80.621132,36.871151 72.602280,36.130753 65.348129,30.972891 
	C62.109459,28.670120 58.899960,26.170906 55.323666,24.532654 
	C49.030407,21.649792 42.028332,24.536839 38.972538,31.231096 
	C40.986992,31.131096 42.709263,30.900345 44.411888,31.001198 
	C46.178001,31.105812 47.925087,31.531557 50.822422,32.002445 
	C47.732395,33.526997 45.542770,34.296452 43.728497,35.591675 
	C41.986458,36.835331 40.633377,38.623817 39.773373,41.163193 
	C43.398056,40.913219 47.022739,40.663246 50.647423,40.413273 
	C50.722729,40.768784 50.798035,41.124298 50.873344,41.479809 
	C50.130978,42.001709 49.388611,42.523613 48.172005,42.651520 
	C43.403999,43.730309 39.006622,44.978474 34.906132,46.870186 
	C34.110188,47.237381 34.235138,50.137497 34.408253,51.820614 
	C34.484058,52.557598 36.152641,53.871498 36.405998,53.725189 
	C37.716980,52.968136 38.841751,51.863083 39.958286,50.802353 
	C40.985897,49.826111 41.920719,48.752197 42.896420,47.721310 
z"/>
<path fill="transparent" opacity="1.000000" stroke="none" 
	d="
M185.567581,244.914459 
	C184.104782,244.504105 182.500443,244.287247 182.081924,243.466049 
	C180.492493,240.347336 174.921631,237.835648 171.851578,240.370041 
	C169.298035,242.478043 168.436493,246.672668 167.020599,250.025421 
	C166.939667,250.217041 168.709656,251.750778 169.470093,251.640305 
	C172.771317,251.160721 176.017883,250.304276 179.283615,249.581619 
	C180.647644,249.279770 182.009933,248.970047 183.639816,248.604019 
	C182.259811,254.900116 179.604706,257.239716 174.294296,257.254883 
	C165.477615,257.280029 156.660751,257.285187 147.844086,257.259125 
	C142.428635,257.243134 140.070435,255.258347 138.023788,248.469086 
	C140.106354,249.117630 141.706558,249.581497 143.282547,250.116623 
	C144.794205,250.629883 146.392303,251.865402 147.754181,251.631134 
	C150.266754,251.198929 154.345642,254.026779 155.046112,249.171082 
	C155.710815,244.563248 151.418991,239.771088 147.021545,239.864868 
	C143.646332,239.936859 139.068970,238.498444 139.739243,244.639023 
	C134.290619,246.116287 133.518982,242.552521 133.001678,238.961548 
	C132.440414,235.065231 134.249420,232.845001 138.237717,232.821091 
	C152.705063,232.734360 167.175476,232.576096 181.637924,232.830887 
	C184.045944,232.873306 188.284668,234.639999 188.425873,235.958206 
	C188.729767,238.795395 186.917023,241.859299 185.567581,244.914459 
M163.035645,249.089508 
	C162.685745,245.737930 162.335846,242.386337 161.985931,239.034760 
	C157.998138,244.464859 158.182083,250.374847 161.556686,254.192764 
	C162.096970,252.584412 162.540390,251.264374 163.035645,249.089508 
z"/>
<path fill="transparent" opacity="1.000000" stroke="none" 
	d="
M157.019196,284.018585 
	C153.361969,284.008789 150.121109,284.426056 147.063644,283.857361 
	C144.507523,283.381958 142.165924,281.753021 139.729324,280.634888 
	C139.935226,279.990265 140.141129,279.345612 140.347046,278.700989 
	C153.941605,278.700989 167.536163,278.700989 181.618286,278.700989 
	C181.072830,282.914673 178.178818,283.833923 174.984375,283.932220 
	C169.165863,284.111206 163.338593,284.005524 157.019196,284.018585 
z"/>
<path fill="transparent" opacity="1.000000" stroke="none" 
	d="
M216.236282,150.869049 
	C212.775955,157.664886 205.484299,160.121735 199.941803,156.498245 
	C198.984863,155.872635 197.911072,153.627808 198.262314,153.159698 
	C199.086899,152.060791 200.926010,150.746643 202.030655,150.989929 
	C210.343185,152.820770 211.946671,151.510300 210.338303,142.880646 
	C212.240005,142.707611 214.091766,142.539124 215.943542,142.370621 
	C216.079971,145.075943 216.216385,147.781265 216.236282,150.869049 
z"/>
<path fill="transparent" opacity="1.000000" stroke="none" 
	d="
M120.001251,150.328369 
	C121.595993,151.537476 122.856461,152.937454 124.116920,154.337418 
	C122.389702,155.481964 120.806519,157.176666 118.909653,157.673294 
	C111.715797,159.556793 105.480682,154.795105 105.025932,147.409134 
	C104.682068,141.824326 105.912727,141.033020 109.787560,142.743317 
	C110.877663,146.367218 110.974258,149.691483 112.684479,151.298645 
	C113.790802,152.338303 117.257812,150.865906 120.001251,150.328369 
z"/>
<path fill="transparent" opacity="1.000000" stroke="none" 
	d="
M42.935753,47.797958 
	C41.920719,48.752197 40.985897,49.826111 39.958286,50.802353 
	C38.841751,51.863083 37.716980,52.968136 36.405998,53.725189 
	C36.152641,53.871498 34.484058,52.557598 34.408253,51.820614 
	C34.235138,50.137497 34.110188,47.237381 34.906132,46.870186 
	C39.006622,44.978474 43.403999,43.730309 47.813667,42.635536 
	C46.781521,43.945496 45.633457,44.877438 43.844414,46.034561 
	C43.078491,46.828270 42.953545,47.396793 42.828598,47.965317 
	C42.828598,47.965317 42.975090,47.874607 42.935753,47.797958 
z"/>
<path fill="transparent" opacity="1.000000" stroke="none" 
	d="
M43.161827,47.947296 
	C42.953545,47.396793 43.078491,46.828270 43.551025,46.166084 
	C43.764095,46.691372 43.629578,47.310326 43.161827,47.947296 
z"/>
<path fill="rgb(113, 107, 98)" opacity="1" stroke="none" 
	d="
M272.439331,169.792847 
	C269.783264,159.327560 262.740143,153.036102 254.148819,147.016785 
	C257.216370,146.602524 260.283936,146.188248 262.899414,145.835037 
	C259.687592,139.376297 256.364594,132.694046 253.041611,126.011810 
	C253.491074,125.668541 253.940521,125.325272 254.389984,124.982002 
	C257.632233,126.619110 260.874481,128.256210 264.116730,129.893311 
	C264.556519,129.656799 264.996338,129.420273 265.436127,129.183762 
	C262.528442,116.351837 259.620300,103.520042 253.762207,91.467773 
	C254.219238,91.141472 254.676285,90.815178 255.133331,90.488876 
	C257.369385,93.066124 260.129822,95.357498 261.725281,98.283981 
	C264.494507,103.363342 266.864838,108.719643 268.827087,114.167053 
	C272.896210,125.463280 276.972443,136.673981 286.996735,144.491699 
	C286.750183,145.047287 286.503632,145.602875 286.257050,146.158463 
	C281.305786,145.107147 276.354492,144.055817 270.546753,142.822632 
	C272.149811,145.706253 273.667542,148.757248 275.474640,151.625931 
	C280.577240,159.725937 280.565002,167.881653 276.010315,176.148849 
	C275.645020,176.811874 274.984039,177.312027 273.825317,178.586411 
	C273.332886,175.256409 272.957062,172.714920 272.439331,169.792847 
z"/>
<path fill="rgb(113, 107, 98)" opacity="1" stroke="none" 
	d="
M56.163643,106.204727 
	C59.010342,100.220070 61.308220,94.283211 67.457748,90.630829 
	C63.561615,103.656281 59.795479,116.247131 56.029343,128.837982 
	C56.570648,129.207932 57.111950,129.577881 57.653255,129.947830 
	C60.936150,128.306763 64.219048,126.665695 68.025803,124.762756 
	C67.037025,133.001480 62.981842,139.313629 58.081509,145.713409 
	C61.587711,146.151855 64.702621,146.541367 67.817535,146.930893 
	C56.404476,154.341614 48.571625,163.560104 47.974049,177.735199 
	C37.548138,164.932205 44.777817,153.675568 51.428959,142.258026 
	C45.797489,144.576492 40.907280,146.655457 34.293999,144.875961 
	C47.616749,134.831131 50.391632,119.920090 56.163643,106.204727 
z"/>
<path fill="rgb(113, 107, 98)" opacity="1" stroke="none" 
	d="
M74.286621,135.284164 
	C73.189133,135.969360 72.372795,136.439270 71.556450,136.909195 
	C71.152138,136.763931 70.747833,136.618668 70.343521,136.473404 
	C79.553528,124.520676 79.535210,110.990608 77.261147,95.998077 
	C89.324341,112.440742 88.219299,124.066406 74.286621,135.284164 
z"/>
<path fill="rgb(113, 107, 98)" opacity="1" stroke="none" 
	d="
M246.553314,127.312546 
	C248.161606,130.548996 249.572235,133.457001 251.167465,136.745560 
	C235.285828,130.340836 232.244263,113.492279 244.233124,96.635361 
	C244.077164,107.404877 241.348892,117.559364 246.553314,127.312546 
z"/>
<path fill="transparent" opacity="1" stroke="none" 
	d="
M163.009735,249.516937 
	C162.540390,251.264374 162.096970,252.584412 161.556686,254.192764 
	C158.182083,250.374847 157.998138,244.464859 161.985931,239.034760 
	C162.335846,242.386337 162.685745,245.737930 163.009735,249.516937 
z"/>
</svg>